RedHatDisplayVF-Light.ufo
<glyph name="exclam" format="2">
  <advance width="178"/>
  <unicode hex="0021"/>
  <outline>
    <contour>
      <point x="70" y="187" type="line"/>
      <point x="108" y="187" type="line"/>
      <point x="113" y="705" type="line"/>
      <point x="65" y="705" type="line"/>
    </contour>
    <contour>
      <point x="89" y="-5" type="curve" smooth="yes"/>
      <point x="110" y="-5"/>
      <point x="126" y="12"/>
      <point x="126" y="33" type="curve" smooth="yes"/>
      <point x="126" y="53"/>
      <point x="110" y="70"/>
      <point x="89" y="70" type="curve" smooth="yes"/>
      <point x="69" y="70"/>
      <point x="52" y="53"/>
      <point x="52" y="33" type="curve" smooth="yes"/>
      <point x="52" y="12"/>
      <point x="69" y="-5"/>
    </contour>
  </outline>
</glyph>
<glyph name="numbersign" format="2">
  <advance width="670"/>
  <unicode hex="0023"/>
  <outline>
    <contour>
      <point x="83" y="0" type="line"/>
      <point x="126" y="0" type="line"/>
      <point x="192" y="230" type="line"/>
      <point x="411" y="230" type="line"/>
      <point x="345" y="0" type="line"/>
      <point x="388" y="0" type="line"/>
      <point x="454" y="230" type="line"/>
      <point x="590" y="230" type="line"/>
      <point x="590" y="270" type="line"/>
      <point x="465" y="270" type="line"/>
      <point x="511" y="430" type="line"/>
      <point x="640" y="430" type="line"/>
      <point x="640" y="470" type="line"/>
      <point x="522" y="470" type="line"/>
      <point x="588" y="700" type="line"/>
      <point x="545" y="700" type="line"/>
      <point x="479" y="470" type="line"/>
      <point x="260" y="470" type="line"/>
      <point x="326" y="700" type="line"/>
      <point x="283" y="700" type="line"/>
      <point x="217" y="470" type="line"/>
      <point x="80" y="470" type="line"/>
      <point x="80" y="430" type="line"/>
      <point x="206" y="430" type="line"/>
      <point x="160" y="270" type="line"/>
      <point x="30" y="270" type="line"/>
      <point x="30" y="230" type="line"/>
      <point x="149" y="230" type="line"/>
    </contour>
    <contour>
      <point x="203" y="270" type="line"/>
      <point x="249" y="430" type="line"/>
      <point x="468" y="430" type="line"/>
      <point x="422" y="270" type="line"/>
    </contour>
  </outline>
</glyph>
<glyph name="dollar" format="2">
  <advance width="552"/>
  <unicode hex="0024"/>
  <outline>
    <contour>
      <point x="257" y="-67" type="line"/>
      <point x="300" y="-67" type="line"/>
      <point x="300" y="17" type="line"/>
      <point x="428" y="22"/>
      <point x="520" y="97"/>
      <point x="520" y="198" type="curve" smooth="yes"/>
      <point x="520" y="291"/>
      <point x="467" y="336"/>
      <point x="327" y="368" type="curve" smooth="yes"/>
      <point x="300" y="374" type="line"/>
      <point x="300" y="637" type="line"/>
      <point x="364" y="629"/>
      <point x="426" y="601"/>
      <point x="480" y="557" type="curve"/>
      <point x="508" y="591" type="line"/>
      <point x="447" y="640"/>
      <point x="374" y="671"/>
      <point x="300" y="680" type="curve"/>
      <point x="300" y="767" type="line"/>
      <point x="257" y="767" type="line"/>
      <point x="257" y="682" type="line" smooth="yes"/>
      <point x="132" y="682"/>
      <point x="43" y="613"/>
      <point x="43" y="514" type="curve" smooth="yes"/>
      <point x="43" y="422"/>
      <point x="94" y="379"/>
      <point x="227" y="347" type="curve" smooth="yes"/>
      <point x="257" y="340" type="line"/>
      <point x="257" y="61" type="line"/>
      <point x="182" y="68"/>
      <point x="115" y="104"/>
      <point x="63" y="164" type="curve"/>
      <point x="29" y="134" type="line"/>
      <point x="89" y="66"/>
      <point x="170" y="26"/>
      <point x="257" y="18" type="curve"/>
    </contour>
    <contour>
      <point x="257" y="384" type="line"/>
      <point x="237" y="389" type="line" smooth="yes"/>
      <point x="122" y="417"/>
      <point x="87" y="446"/>
      <point x="87" y="514" type="curve" smooth="yes"/>
      <point x="87" y="590"/>
      <point x="156" y="640"/>
      <point x="257" y="640" type="curve" smooth="yes"/>
    </contour>
    <contour>
      <point x="300" y="59" type="curve"/>
      <point x="300" y="330" type="line"/>
      <point x="317" y="326" type="line" smooth="yes"/>
      <point x="439" y="298"/>
      <point x="476" y="267"/>
      <point x="476" y="198" type="curve" smooth="yes"/>
      <point x="476" y="121"/>
      <point x="404" y="63"/>
    </contour>
  </outline>
</glyph>
<glyph name="quotesingle" format="2">
  <advance width="163"/>
  <unicode hex="0027"/>
  <outline>
    <contour>
      <point x="65" y="530" type="line"/>
      <point x="97" y="530" type="line"/>
      <point x="106" y="700" type="line"/>
      <point x="57" y="700" type="line"/>
    </contour>
  </outline>
</glyph>
<glyph name="parenleft" format="2">
  <advance width="379"/>
  <unicode hex="0028"/>
  <outline>
    <contour>
      <point x="313" y="-221" type="curve"/>
      <point x="336" y="-186" type="line"/>
      <point x="196" y="-106"/>
      <point x="115" y="53"/>
      <point x="115" y="247" type="curve" smooth="yes"/>
      <point x="115" y="442"/>
      <point x="196" y="600"/>
      <point x="336" y="680" type="curve"/>
      <point x="313" y="715" type="line"/>
      <point x="155" y="621"/>
      <point x="69" y="456"/>
      <point x="69" y="247" type="curve" smooth="yes"/>
      <point x="69" y="38"/>
      <point x="155" y="-126"/>
    </contour>
  </outline>
</glyph>
<glyph name="asterisk" format="2">
  <advance width="432"/>
  <unicode hex="002A"/>
  <outline>
    <contour>
      <point x="197" y="352" type="line"/>
      <point x="235" y="352" type="line"/>
      <point x="233" y="502" type="line"/>
      <point x="358" y="424" type="line"/>
      <point x="378" y="454" type="line"/>
      <point x="249" y="532" type="line"/>
      <point x="373" y="606" type="line"/>
      <point x="353" y="636" type="line"/>
      <point x="233" y="563" type="line"/>
      <point x="235" y="700" type="line"/>
      <point x="197" y="700" type="line"/>
      <point x="199" y="562" type="line"/>
      <point x="79" y="636" type="line"/>
      <point x="59" y="606" type="line"/>
      <point x="182" y="532" type="line"/>
      <point x="54" y="454" type="line"/>
      <point x="73" y="423" type="line"/>
      <point x="199" y="501" type="line"/>
    </contour>
  </outline>
</glyph>
<glyph name="plus" format="2">
  <advance width="600"/>
  <unicode hex="002B"/>
  <outline>
    <contour>
      <point x="279" y="152" type="line"/>
      <point x="320" y="152" type="line"/>
      <point x="320" y="337" type="line"/>
      <point x="488" y="337" type="line"/>
      <point x="488" y="378" type="line"/>
      <point x="320" y="378" type="line"/>
      <point x="320" y="560" type="line"/>
      <point x="279" y="560" type="line"/>
      <point x="279" y="378" type="line"/>
      <point x="111" y="378" type="line"/>
      <point x="111" y="337" type="line"/>
      <point x="279" y="337" type="line"/>
    </contour>
  </outline>
</glyph>
<glyph name="slash" format="2">
  <advance width="433"/>
  <unicode hex="002F"/>
  <outline>
    <contour>
      <point x="-66" y="-204" type="line"/>
      <point x="-19" y="-204" type="line"/>
      <point x="401" y="700" type="line"/>
      <point x="354" y="700" type="line"/>
    </contour>
  </outline>
</glyph>
<glyph name="zero" format="2">
  <advance width="650"/>
  <unicode hex="0030"/>
  <outline>
    <contour>
      <point x="325" y="-11" type="curve" smooth="yes"/>
      <point x="483" y="-11"/>
      <point x="600" y="134"/>
      <point x="600" y="350" type="curve" smooth="yes"/>
      <point x="600" y="566"/>
      <point x="483" y="711"/>
      <point x="325" y="711" type="curve" smooth="yes"/>
      <point x="167" y="711"/>
      <point x="50" y="566"/>
      <point x="50" y="350" type="curve" smooth="yes"/>
      <point x="50" y="134"/>
      <point x="167" y="-11"/>
    </contour>
    <contour>
      <point x="325" y="31" type="curve" smooth="yes"/>
      <point x="189" y="31"/>
      <point x="96" y="153"/>
      <point x="96" y="350" type="curve" smooth="yes"/>
      <point x="96" y="547"/>
      <point x="189" y="669"/>
      <point x="325" y="669" type="curve" smooth="yes"/>
      <point x="461" y="669"/>
      <point x="554" y="547"/>
      <point x="554" y="350" type="curve" smooth="yes"/>
      <point x="554" y="153"/>
      <point x="461" y="31"/>
    </contour>
  </outline>
</glyph>
<glyph name="one" format="2">
  <advance width="262"/>
  <unicode hex="0031"/>
  <outline>
    <contour>
      <point x="140" y="0" type="line"/>
      <point x="184" y="0" type="line"/>
      <point x="184" y="700" type="line"/>
      <point x="150" y="700" type="line"/>
      <point x="31" y="644" type="line"/>
      <point x="31" y="598" type="line"/>
      <point x="140" y="649" type="line"/>
    </contour>
  </outline>
</glyph>
<glyph name="four" format="2">
  <advance width="594"/>
  <unicode hex="0034"/>
  <outline>
    <contour>
      <point x="425" y="0" type="line"/>
      <point x="469" y="0" type="line"/>
      <point x="469" y="197" type="line"/>
      <point x="552" y="197" type="line"/>
      <point x="552" y="239" type="line"/>
      <point x="469" y="239" type="line"/>
      <point x="469" y="700" type="line"/>
      <point x="423" y="700" type="line"/>
      <point x="30" y="232" type="line"/>
      <point x="30" y="197" type="line"/>
      <point x="425" y="197" type="line"/>
    </contour>
    <contour>
      <point x="91" y="239" type="line"/>
      <point x="425" y="636" type="line"/>
      <point x="425" y="239" type="line"/>
    </contour>
  </outline>
</glyph>
<glyph name="nine" format="2">
  <advance width="611"/>
  <unicode hex="0039"/>
  <outline>
    <contour>
      <point x="282" y="711" type="curve" smooth="yes"/>
      <point x="150" y="711"/>
      <point x="53" y="614"/>
      <point x="53" y="483" type="curve" smooth="yes"/>
      <point x="53" y="354"/>
      <point x="151" y="261"/>
      <point x="287" y="261" type="curve" smooth="yes"/>
      <point x="366" y="261"/>
      <point x="444" y="301"/>
      <point x="500" y="368" type="curve"/>
      <point x="496" y="159"/>
      <point x="398" y="31"/>
      <point x="243" y="31" type="curve" smooth="yes"/>
      <point x="201" y="31"/>
      <point x="151" y="44"/>
      <point x="111" y="64" type="curve"/>
      <point x="92" y="25" type="line"/>
      <point x="136" y="2"/>
      <point x="188" y="-11"/>
      <point x="240" y="-11" type="curve" smooth="yes"/>
      <point x="425" y="-11"/>
      <point x="548" y="145"/>
      <point x="548" y="381" type="curve" smooth="yes"/>
      <point x="548" y="573"/>
      <point x="437" y="711"/>
    </contour>
    <contour>
      <point x="291" y="303" type="curve" smooth="yes"/>
      <point x="177" y="303"/>
      <point x="99" y="380"/>
      <point x="99" y="485" type="curve" smooth="yes"/>
      <point x="99" y="589"/>
      <point x="176" y="669"/>
      <point x="281" y="669" type="curve" smooth="yes"/>
      <point x="403" y="669"/>
      <point x="488" y="568"/>
      <point x="499" y="418" type="curve"/>
      <point x="446" y="347"/>
      <point x="368" y="303"/>
    </contour>
  </outline>
</glyph>
<glyph name="less" format="2">
  <advance width="600"/>
  <unicode hex="003C"/>
  <outline>
    <contour>
      <point x="425" y="123" type="line"/>
      <point x="448" y="156" type="line"/>
      <point x="185" y="350" type="line"/>
      <point x="448" y="544" type="line"/>
      <point x="425" y="575" type="line"/>
      <point x="121" y="349" type="line"/>
    </contour>
  </outline>
</glyph>
<glyph name="question" format="2">
  <advance width="500"/>
  <unicode hex="003F"/>
  <outline>
    <contour>
      <point x="195" y="193" type="curve"/>
      <point x="236" y="193" type="line"/>
      <point x="231" y="258"/>
      <point x="245" y="309"/>
      <point x="302" y="349" type="curve" smooth="yes"/>
      <point x="340" y="376" type="line" smooth="yes"/>
      <point x="418" y="430"/>
      <point x="453" y="470"/>
      <point x="453" y="544" type="curve" smooth="yes"/>
      <point x="453" y="637"/>
      <point x="368" y="711"/>
      <point x="249" y="711" type="curve"/>
      <point x="174" y="711"/>
      <point x="98" y="682"/>
      <point x="29" y="610" type="curve"/>
      <point x="62" y="575" type="line"/>
      <point x="120" y="641"/>
      <point x="183" y="667"/>
      <point x="246" y="667" type="curve" smooth="yes"/>
      <point x="337" y="667"/>
      <point x="407" y="614"/>
      <point x="407" y="546" type="curve" smooth="yes"/>
      <point x="407" y="489"/>
      <point x="380" y="455"/>
      <point x="320" y="413" type="curve" smooth="yes"/>
      <point x="279" y="384" type="line" smooth="yes"/>
      <point x="209" y="334"/>
      <point x="190" y="277"/>
    </contour>
    <contour>
      <point x="216" y="-5" type="curve" smooth="yes"/>
      <point x="236" y="-5"/>
      <point x="253" y="12"/>
      <point x="253" y="33" type="curve" smooth="yes"/>
      <point x="253" y="53"/>
      <point x="236" y="70"/>
      <point x="216" y="70" type="curve" smooth="yes"/>
      <point x="195" y="70"/>
      <point x="178" y="53"/>
      <point x="178" y="33" type="curve" smooth="yes"/>
      <point x="178" y="12"/>
      <point x="195" y="-5"/>
    </contour>
  </outline>
</glyph>
<glyph name="at" format="2">
  <advance width="771"/>
  <unicode hex="0040"/>
  <outline>
    <contour>
      <point x="399" y="-144" type="curve" smooth="yes"/>
      <point x="469" y="-144"/>
      <point x="536" y="-128"/>
      <point x="591" y="-98" type="curve"/>
      <point x="576" y="-64" type="line"/>
      <point x="526" y="-92"/>
      <point x="466" y="-107"/>
      <point x="404" y="-107" type="curve" smooth="yes"/>
      <point x="222" y="-107"/>
      <point x="86" y="28"/>
      <point x="86" y="208" type="curve" smooth="yes"/>
      <point x="86" y="392"/>
      <point x="221" y="537"/>
      <point x="393" y="537" type="curve"/>
      <point x="559" y="537"/>
      <point x="685" y="420"/>
      <point x="685" y="266" type="curve" smooth="yes"/>
      <point x="685" y="169"/>
      <point x="629" y="93"/>
      <point x="557" y="93" type="curve" smooth="yes"/>
      <point x="507" y="93"/>
      <point x="485" y="122"/>
      <point x="496" y="176" type="curve" smooth="yes"/>
      <point x="534" y="362" type="line"/>
      <point x="494" y="362" type="line"/>
      <point x="488" y="333" type="line"/>
      <point x="464" y="360"/>
      <point x="425" y="376"/>
      <point x="383" y="376" type="curve" smooth="yes"/>
      <point x="291" y="376"/>
      <point x="217" y="298"/>
      <point x="217" y="202" type="curve" smooth="yes"/>
      <point x="217" y="116"/>
      <point x="278" y="52"/>
      <point x="359" y="52" type="curve" smooth="yes"/>
      <point x="395" y="52"/>
      <point x="433" y="69"/>
      <point x="467" y="100" type="curve"/>
      <point x="483" y="73"/>
      <point x="514" y="58"/>
      <point x="555" y="58" type="curve" smooth="yes"/>
      <point x="652" y="58"/>
      <point x="726" y="147"/>
      <point x="726" y="265" type="curve" smooth="yes"/>
      <point x="726" y="441"/>
      <point x="583" y="574"/>
      <point x="395" y="574" type="curve"/>
      <point x="196" y="574"/>
      <point x="45" y="415"/>
      <point x="45" y="207" type="curve" smooth="yes"/>
      <point x="45" y="7"/>
      <point x="198" y="-144"/>
    </contour>
    <contour>
      <point x="367" y="87" type="curve" smooth="yes"/>
      <point x="302" y="87"/>
      <point x="258" y="135"/>
      <point x="258" y="204" type="curve" smooth="yes"/>
      <point x="258" y="279"/>
      <point x="313" y="341"/>
      <point x="380" y="341" type="curve" smooth="yes"/>
      <point x="422" y="341"/>
      <point x="460" y="320"/>
      <point x="479" y="289" type="curve"/>
      <point x="457" y="178" type="line" smooth="yes"/>
      <point x="453" y="160"/>
      <point x="453" y="143"/>
      <point x="456" y="129" type="curve"/>
      <point x="432" y="102"/>
      <point x="401" y="87"/>
    </contour>
  </outline>
</glyph>
<glyph name="C" format="2">
  <advance width="724"/>
  <unicode hex="0043"/>
  <anchor x="402" y="700" name="top"/>
  <anchor x="406" y="0" name="bottom"/>
  <outline>
    <contour>
      <point x="407" y="-11" type="curve" smooth="yes"/>
      <point x="511" y="-11"/>
      <point x="606" y="26"/>
      <point x="677" y="97" type="curve"/>
      <point x="647" y="132" type="line"/>
      <point x="590" y="70"/>
      <point x="498" y="32"/>
      <point x="407" y="32" type="curve" smooth="yes"/>
      <point x="229" y="32"/>
      <point x="95" y="172"/>
      <point x="95" y="350" type="curve" smooth="yes"/>
      <point x="95" y="528"/>
      <point x="229" y="668"/>
      <point x="407" y="668" type="curve" smooth="yes"/>
      <point x="498" y="668"/>
      <point x="590" y="630"/>
      <point x="647" y="568" type="curve"/>
      <point x="677" y="603" type="line"/>
      <point x="606" y="674"/>
      <point x="511" y="711"/>
      <point x="407" y="711" type="curve" smooth="yes"/>
      <point x="204" y="711"/>
      <point x="48" y="551"/>
      <point x="48" y="350" type="curve" smooth="yes"/>
      <point x="48" y="149"/>
      <point x="204" y="-11"/>
    </contour>
  </outline>
</glyph>
<glyph name="D" format="2">
  <advance width="713"/>
  <unicode hex="0044"/>
  <anchor x="356" y="700" name="top"/>
  <outline>
    <contour>
      <point x="129" y="43" type="line"/>
      <point x="129" y="657" type="line"/>
      <point x="303" y="657" type="line" smooth="yes"/>
      <point x="482" y="657"/>
      <point x="618" y="525"/>
      <point x="618" y="350" type="curve" smooth="yes"/>
      <point x="618" y="175"/>
      <point x="482" y="43"/>
      <point x="303" y="43" type="curve" smooth="yes"/>
    </contour>
    <contour>
      <point x="83" y="0" type="line"/>
      <point x="297" y="0" type="line" smooth="yes"/>
      <point x="518" y="0"/>
      <point x="665" y="150"/>
      <point x="665" y="350" type="curve" smooth="yes"/>
      <point x="665" y="550"/>
      <point x="518" y="700"/>
      <point x="297" y="700" type="curve" smooth="yes"/>
      <point x="83" y="700" type="line"/>
    </contour>
  </outline>
</glyph>
<glyph name="E" format="2">
  <advance width="602"/>
  <unicode hex="0045"/>
  <anchor x="339" y="700" name="top"/>
  <anchor x="571" y="0" name="bottom"/>
  <outline>
    <contour>
      <point x="83" y="0" type="line"/>
      <point x="571" y="0" type="line"/>
      <point x="571" y="43" type="line"/>
      <point x="129" y="43" type="line"/>
      <point x="129" y="332" type="line"/>
      <point x="415" y="332" type="line"/>
      <point x="415" y="375" type="line"/>
      <point x="129" y="375" type="line"/>
      <point x="129" y="657" type="line"/>
      <point x="567" y="657" type="line"/>
      <point x="567" y="700" type="line"/>
      <point x="83" y="700" type="line"/>
    </contour>
  </outline>
</glyph>
<glyph name="F" format="2">
  <advance width="592"/>
  <unicode hex="0046"/>
  <outline>
    <contour>
      <point x="83" y="0" type="line"/>
      <point x="129" y="0" type="line"/>
      <point x="129" y="327" type="line"/>
      <point x="415" y="327" type="line"/>
      <point x="415" y="370" type="line"/>
      <point x="129" y="370" type="line"/>
      <point x="129" y="657" type="line"/>
      <point x="566" y="657" type="line"/>
      <point x="566" y="700" type="line"/>
      <point x="83" y="700" type="line"/>
    </contour>
  </outline>
</glyph>
<glyph name="G" format="2">
  <advance width="786"/>
  <unicode hex="0047"/>
  <anchor x="404" y="700" name="top"/>
  <anchor x="409" y="0" name="bottom"/>
  <outline>
    <contour>
      <point x="406" y="-11" type="curve" smooth="yes"/>
      <point x="595" y="-11"/>
      <point x="740" y="140"/>
      <point x="740" y="329" type="curve" smooth="yes"/>
      <point x="740" y="354" type="line"/>
      <point x="426" y="354" type="line"/>
      <point x="426" y="311" type="line"/>
      <point x="695" y="311" type="line"/>
      <point x="686" y="152"/>
      <point x="568" y="32"/>
      <point x="406" y="32" type="curve" smooth="yes"/>
      <point x="228" y="32"/>
      <point x="95" y="172"/>
      <point x="95" y="350" type="curve" smooth="yes"/>
      <point x="95" y="528"/>
      <point x="229" y="668"/>
      <point x="407" y="668" type="curve" smooth="yes"/>
      <point x="498" y="668"/>
      <point x="590" y="630"/>
      <point x="647" y="568" type="curve"/>
      <point x="677" y="603" type="line"/>
      <point x="606" y="674"/>
      <point x="511" y="711"/>
      <point x="407" y="711" type="curve" smooth="yes"/>
      <point x="204" y="711"/>
      <point x="48" y="551"/>
      <point x="48" y="350" type="curve" smooth="yes"/>
      <point x="48" y="149"/>
      <point x="203" y="-11"/>
    </contour>
  </outline>
</glyph>
<glyph name="I" format="2">
  <advance width="212"/>
  <unicode hex="0049"/>
  <anchor x="106" y="700" name="top"/>
  <anchor x="129" y="0" name="bottom"/>
  <outline>
    <contour>
      <point x="83" y="0" type="line"/>
      <point x="129" y="0" type="line"/>
      <point x="129" y="700" type="line"/>
      <point x="83" y="700" type="line"/>
    </contour>
  </outline>
</glyph>
<glyph name="J" format="2">
  <advance width="581"/>
  <unicode hex="004A"/>
  <anchor x="490" y="700" name="top"/>
  <outline>
    <contour>
      <point x="259" y="-11" type="curve" smooth="yes"/>
      <point x="415" y="-11"/>
      <point x="513" y="92"/>
      <point x="513" y="260" type="curve" smooth="yes"/>
      <point x="513" y="700" type="line"/>
      <point x="467" y="700" type="line"/>
      <point x="467" y="260" type="line" smooth="yes"/>
      <point x="467" y="120"/>
      <point x="386" y="32"/>
      <point x="260" y="32" type="curve" smooth="yes"/>
      <point x="165" y="32"/>
      <point x="96" y="83"/>
      <point x="58" y="175" type="curve"/>
      <point x="16" y="156" type="line"/>
      <point x="60" y="47"/>
      <point x="146" y="-11"/>
    </contour>
  </outline>
</glyph>
<glyph name="K" format="2">
  <advance width="580"/>
  <unicode hex="004B"/>
  <anchor x="318" y="0" name="bottom"/>
  <outline>
    <contour>
      <point x="83" y="0" type="line"/>
      <point x="129" y="0" type="line"/>
      <point x="129" y="339" type="line"/>
      <point x="518" y="0" type="line"/>
      <point x="588" y="0" type="line"/>
      <point x="183" y="351" type="line"/>
      <point x="582" y="700" type="line"/>
      <point x="517" y="700" type="line"/>
      <point x="129" y="359" type="line"/>
      <point x="129" y="700" type="line"/>
      <point x="83" y="700" type="line"/>
    </contour>
  </outline>
</glyph>
<glyph name="L" format="2">
  <advance width="593"/>
  <unicode hex="004C"/>
  <anchor x="106" y="700" name="top"/>
  <anchor x="339" y="0" name="bottom"/>
  <outline>
    <contour>
      <point x="83" y="0" type="line"/>
      <point x="561" y="0" type="line"/>
      <point x="561" y="43" type="line"/>
      <point x="129" y="43" type="line"/>
      <point x="129" y="700" type="line"/>
      <point x="83" y="700" type="line"/>
    </contour>
  </outline>
</glyph>
<glyph name="M" format="2">
  <advance width="831"/>
  <unicode hex="004D"/>
  <outline>
    <contour>
      <point x="83" y="0" type="line"/>
      <point x="129" y="0" type="line"/>
      <point x="129" y="654" type="line"/>
      <point x="416" y="50" type="line"/>
      <point x="702" y="656" type="line"/>
      <point x="702" y="0" type="line"/>
      <point x="748" y="0" type="line"/>
      <point x="748" y="700" type="line"/>
      <point x="676" y="700" type="line"/>
      <point x="416" y="149" type="line"/>
      <point x="155" y="700" type="line"/>
      <point x="83" y="700" type="line"/>
    </contour>
  </outline>
</glyph>
<glyph name="N" format="2">
  <advance width="714"/>
  <unicode hex="004E"/>
  <anchor x="357" y="700" name="top"/>
  <anchor x="357" y="0" name="bottom"/>
  <outline>
    <contour>
      <point x="83" y="0" type="line"/>
      <point x="129" y="0" type="line"/>
      <point x="129" y="632" type="line"/>
      <point x="591" y="0" type="line"/>
      <point x="631" y="0" type="line"/>
      <point x="631" y="700" type="line"/>
      <point x="585" y="700" type="line"/>
      <point x="585" y="81" type="line"/>
      <point x="133" y="700" type="line"/>
      <point x="83" y="700" type="line"/>
    </contour>
  </outline>
</glyph>
<glyph name="P" format="2">
  <advance width="631"/>
  <unicode hex="0050"/>
  <outline>
    <contour>
      <point x="83" y="0" type="line"/>
      <point x="129" y="0" type="line"/>
      <point x="129" y="309" type="line"/>
      <point x="366" y="309" type="line" smooth="yes"/>
      <point x="504" y="309"/>
      <point x="588" y="388"/>
      <point x="588" y="506" type="curve" smooth="yes"/>
      <point x="588" y="623"/>
      <point x="504" y="700"/>
      <point x="366" y="700" type="curve" smooth="yes"/>
      <point x="83" y="700" type="line"/>
    </contour>
    <contour>
      <point x="129" y="352" type="line"/>
      <point x="129" y="657" type="line"/>
      <point x="364" y="657" type="line" smooth="yes"/>
      <point x="478" y="657"/>
      <point x="541" y="597"/>
      <point x="541" y="506" type="curve" smooth="yes"/>
      <point x="541" y="413"/>
      <point x="478" y="352"/>
      <point x="364" y="352" type="curve" smooth="yes"/>
    </contour>
  </outline>
</glyph>
<glyph name="Q" format="2">
  <advance width="808"/>
  <unicode hex="0051"/>
  <outline>
    <contour>
      <point x="667" y="-15" type="line"/>
      <point x="717" y="-7" type="line"/>
      <point x="641" y="79" type="line"/>
      <point x="714" y="145"/>
      <point x="760" y="241"/>
      <point x="760" y="350" type="curve" smooth="yes"/>
      <point x="760" y="552"/>
      <point x="602" y="711"/>
      <point x="404" y="711" type="curve" smooth="yes"/>
      <point x="206" y="711"/>
      <point x="48" y="552"/>
      <point x="48" y="350" type="curve" smooth="yes"/>
      <point x="48" y="148"/>
      <point x="206" y="-11"/>
      <point x="404" y="-11" type="curve" smooth="yes"/>
      <point x="480" y="-11"/>
      <point x="550" y="12"/>
      <point x="608" y="53" type="curve"/>
    </contour>
    <contour>
      <point x="404" y="32" type="curve" smooth="yes"/>
      <point x="230" y="32"/>
      <point x="95" y="171"/>
      <point x="95" y="350" type="curve" smooth="yes"/>
      <point x="95" y="529"/>
      <point x="230" y="668"/>
      <point x="404" y="668" type="curve" smooth="yes"/>
      <point x="578" y="668"/>
      <point x="713" y="529"/>
      <point x="713" y="350" type="curve" smooth="yes"/>
      <point x="713" y="255"/>
      <point x="675" y="171"/>
      <point x="612" y="113" type="curve"/>
      <point x="519" y="221" type="line"/>
      <point x="469" y="213" type="line"/>
      <point x="579" y="86" type="line"/>
      <point x="530" y="52"/>
      <point x="470" y="32"/>
    </contour>
  </outline>
</glyph>
<glyph name="R" format="2">
  <advance width="629"/>
  <unicode hex="0052"/>
  <anchor x="307" y="700" name="top"/>
  <anchor x="307" y="0" name="bottom"/>
  <outline>
    <contour>
      <point x="83" y="0" type="line"/>
      <point x="129" y="0" type="line"/>
      <point x="129" y="312" type="line"/>
      <point x="388" y="312" type="line"/>
      <point x="539" y="0" type="line"/>
      <point x="589" y="0" type="line"/>
      <point x="434" y="319" type="line"/>
      <point x="532" y="342"/>
      <point x="586" y="415"/>
      <point x="586" y="506" type="curve" smooth="yes"/>
      <point x="586" y="617"/>
      <point x="507" y="700"/>
      <point x="365" y="700" type="curve" smooth="yes"/>
      <point x="83" y="700" type="line"/>
    </contour>
    <contour>
      <point x="129" y="355" type="line"/>
      <point x="129" y="657" type="line"/>
      <point x="362" y="657" type="line" smooth="yes"/>
      <point x="477" y="657"/>
      <point x="539" y="592"/>
      <point x="539" y="506" type="curve" smooth="yes"/>
      <point x="539" y="420"/>
      <point x="477" y="355"/>
      <point x="362" y="355" type="curve" smooth="yes"/>
    </contour>
  </outline>
</glyph>
<glyph name="S" format="2">
  <advance width="586"/>
  <unicode hex="0053"/>
  <note>
Version created Fri Aug  3 17:49:29 2018
</note>
  <anchor x="272" y="702" name="top"/>
  <anchor x="298" y="2" name="bottom"/>
  <outline>
    <contour>
      <point x="300" y="-11" type="curve" smooth="yes"/>
      <point x="448" y="-11"/>
      <point x="555" y="73"/>
      <point x="555" y="190" type="curve" smooth="yes"/>
      <point x="555" y="300"/>
      <point x="491" y="355"/>
      <point x="332" y="381" type="curve" smooth="yes"/>
      <point x="247" y="395" type="line" smooth="yes"/>
      <point x="131" y="414"/>
      <point x="86" y="451"/>
      <point x="86" y="525" type="curve" smooth="yes"/>
      <point x="86" y="609"/>
      <point x="163" y="668"/>
      <point x="272" y="668" type="curve" smooth="yes"/>
      <point x="353" y="668"/>
      <point x="435" y="638"/>
      <point x="513" y="580" type="curve"/>
      <point x="541" y="618" type="line"/>
      <point x="458" y="679"/>
      <point x="364" y="711"/>
      <point x="272" y="711" type="curve" smooth="yes"/>
      <point x="135" y="711"/>
      <point x="39" y="634"/>
      <point x="39" y="523" type="curve" smooth="yes"/>
      <point x="39" y="426"/>
      <point x="102" y="372"/>
      <point x="242" y="349" type="curve" smooth="yes"/>
      <point x="327" y="335" type="line" smooth="yes"/>
      <point x="457" y="314"/>
      <point x="508" y="274"/>
      <point x="508" y="193" type="curve" smooth="yes"/>
      <point x="508" y="100"/>
      <point x="420" y="32"/>
      <point x="300" y="32" type="curve" smooth="yes"/>
      <point x="204" y="32"/>
      <point x="117" y="74"/>
      <point x="51" y="153" type="curve"/>
      <point x="15" y="123" type="line"/>
      <point x="88" y="36"/>
      <point x="188" y="-11"/>
    </contour>
  </outline>
</glyph>
<glyph name="T" format="2">
  <advance width="600"/>
  <unicode hex="0054"/>
  <anchor x="300" y="700" name="top"/>
  <anchor x="300" y="0" name="bottom"/>
  <outline>
    <contour>
      <point x="277" y="0" type="line"/>
      <point x="323" y="0" type="line"/>
      <point x="323" y="657" type="line"/>
      <point x="583" y="657" type="line"/>
      <point x="583" y="700" type="line"/>
      <point x="17" y="700" type="line"/>
      <point x="17" y="657" type="line"/>
      <point x="277" y="657" type="line"/>
    </contour>
  </outline>
</glyph>
<glyph name="U" format="2">
  <advance width="694"/>
  <unicode hex="0055"/>
  <anchor x="347" y="700" name="top"/>
  <anchor x="427" y="0" name="bottom"/>
  <outline>
    <contour>
      <point x="347" y="-11" type="curve" smooth="yes"/>
      <point x="513" y="-11"/>
      <point x="626" y="99"/>
      <point x="626" y="293" type="curve" smooth="yes"/>
      <point x="626" y="700" type="line"/>
      <point x="580" y="700" type="line"/>
      <point x="580" y="293" type="line" smooth="yes"/>
      <point x="580" y="126"/>
      <point x="483" y="32"/>
      <point x="347" y="32" type="curve" smooth="yes"/>
      <point x="211" y="32"/>
      <point x="114" y="126"/>
      <point x="114" y="293" type="curve" smooth="yes"/>
      <point x="114" y="700" type="line"/>
      <point x="68" y="700" type="line"/>
      <point x="68" y="293" type="line" smooth="yes"/>
      <point x="68" y="99"/>
      <point x="181" y="-11"/>
    </contour>
  </outline>
</glyph>
<glyph name="V" format="2">
  <advance width="655"/>
  <unicode hex="0056"/>
  <outline>
    <contour>
      <point x="299" y="0" type="line"/>
      <point x="356" y="0" type="line"/>
      <point x="650" y="700" type="line"/>
      <point x="602" y="700" type="line"/>
      <point x="328" y="43" type="line"/>
      <point x="55" y="700" type="line"/>
      <point x="5" y="700" type="line"/>
    </contour>
  </outline>
</glyph>
<glyph name="W" format="2">
  <advance width="884"/>
  <unicode hex="0057"/>
  <guideline x="428" y="700" angle="0.0" color="0.999,0.001,0.001,0.999" identifier="nxb2yW0p9q"/>
  <anchor x="443" y="700" name="top"/>
  <outline>
    <contour>
      <point x="213" y="0" type="line"/>
      <point x="257" y="0" type="line"/>
      <point x="443" y="633" type="line"/>
      <point x="626" y="0" type="line"/>
      <point x="670" y="0" type="line"/>
      <point x="857" y="700" type="line"/>
      <point x="813" y="700" type="line"/>
      <point x="648" y="73" type="line"/>
      <point x="467" y="700" type="line"/>
      <point x="421" y="700" type="line"/>
      <point x="237" y="76" type="line"/>
      <point x="73" y="700" type="line"/>
      <point x="27" y="700" type="line"/>
    </contour>
  </outline>
</glyph>
<glyph name="Y" format="2">
  <advance width="609"/>
  <unicode hex="0059"/>
  <guideline x="305" y="700" angle="0.0" color="0.999,0.001,0.001,0.999" identifier="ll1LYW1fNs"/>
  <anchor x="305" y="700" name="top"/>
  <outline>
    <contour>
      <point x="281" y="0" type="line"/>
      <point x="327" y="0" type="line"/>
      <point x="327" y="290" type="line"/>
      <point x="602" y="700" type="line"/>
      <point x="549" y="700" type="line"/>
      <point x="305" y="334" type="line"/>
      <point x="62" y="700" type="line"/>
      <point x="7" y="700" type="line"/>
      <point x="281" y="292" type="line"/>
    </contour>
  </outline>
</glyph>
<glyph name="Z" format="2">
  <advance width="598"/>
  <unicode hex="005A"/>
  <anchor x="304" y="700" name="top"/>
  <outline>
    <contour>
      <point x="25" y="0" type="line"/>
      <point x="568" y="0" type="line"/>
      <point x="568" y="43" type="line"/>
      <point x="86" y="43" type="line"/>
      <point x="558" y="665" type="line"/>
      <point x="558" y="700" type="line"/>
      <point x="29" y="700" type="line"/>
      <point x="29" y="657" type="line"/>
      <point x="497" y="657" type="line"/>
      <point x="25" y="35" type="line"/>
    </contour>
  </outline>
</glyph>
<glyph name="bracketleft" format="2">
  <advance width="326"/>
  <unicode hex="005B"/>
  <outline>
    <contour>
      <point x="57" y="-215" type="line"/>
      <point x="288" y="-215" type="line"/>
      <point x="288" y="-176" type="line"/>
      <point x="102" y="-176" type="line"/>
      <point x="102" y="661" type="line"/>
      <point x="288" y="661" type="line"/>
      <point x="288" y="700" type="line"/>
      <point x="57" y="700" type="line"/>
    </contour>
  </outline>
</glyph>
<glyph name="backslash" format="2">
  <advance width="437"/>
  <unicode hex="005C"/>
  <outline>
    <contour>
      <point x="454" y="-204" type="line"/>
      <point x="502" y="-204" type="line"/>
      <point x="82" y="700" type="line"/>
      <point x="34" y="700" type="line"/>
    </contour>
  </outline>
</glyph>
<glyph name="asciicircum" format="2">
  <advance width="600"/>
  <unicode hex="005E"/>
  <outline>
    <contour>
      <point x="101" y="350" type="line"/>
      <point x="148" y="350" type="line"/>
      <point x="300" y="648" type="line"/>
      <point x="452" y="350" type="line"/>
      <point x="499" y="350" type="line"/>
      <point x="321" y="700" type="line"/>
      <point x="279" y="700" type="line"/>
    </contour>
  </outline>
</glyph>
<glyph name="a" format="2">
  <advance width="494"/>
  <unicode hex="0061"/>
  <note>
Version created Mon Aug  6 16:22:34 2018
</note>
  <anchor x="234" y="492" name="top"/>
  <anchor x="428" y="0" name="bottom"/>
  <outline>
    <contour>
      <point x="216" y="-10" type="curve" smooth="yes"/>
      <point x="283" y="-10"/>
      <point x="339" y="13"/>
      <point x="384" y="55" type="curve"/>
      <point x="384" y="0" type="line"/>
      <point x="428" y="0" type="line"/>
      <point x="428" y="336" type="line" smooth="yes"/>
      <point x="428" y="444"/>
      <point x="360" y="502"/>
      <point x="242" y="502" type="curve" smooth="yes"/>
      <point x="184" y="502"/>
      <point x="128" y="487"/>
      <point x="66" y="455" type="curve"/>
      <point x="85" y="416" type="line"/>
      <point x="149" y="449"/>
      <point x="195" y="463"/>
      <point x="241" y="463" type="curve" smooth="yes"/>
      <point x="333" y="463"/>
      <point x="384" y="418"/>
      <point x="384" y="328" type="curve" smooth="yes"/>
      <point x="384" y="246" type="line"/>
      <point x="340" y="274"/>
      <point x="286" y="289"/>
      <point x="228" y="289" type="curve" smooth="yes"/>
      <point x="110" y="289"/>
      <point x="34" y="229"/>
      <point x="34" y="138" type="curve" smooth="yes"/>
      <point x="34" y="50"/>
      <point x="108" y="-10"/>
    </contour>
    <contour>
      <point x="78" y="139" type="curve" smooth="yes"/>
      <point x="78" y="206"/>
      <point x="136" y="251"/>
      <point x="223" y="251" type="curve" smooth="yes"/>
      <point x="290" y="251"/>
      <point x="340" y="235"/>
      <point x="384" y="202" type="curve"/>
      <point x="384" y="100" type="line"/>
      <point x="341" y="54"/>
      <point x="289" y="29"/>
      <point x="219" y="29" type="curve" smooth="yes"/>
      <point x="137" y="29"/>
      <point x="78" y="75"/>
    </contour>
  </outline>
</glyph>
<glyph name="b" format="2">
  <advance width="571"/>
  <unicode hex="0062"/>
  <outline>
    <contour>
      <point x="68" y="0" type="line"/>
      <point x="112" y="0" type="line"/>
      <point x="112" y="58" type="line"/>
      <point x="158" y="17"/>
      <point x="218" y="-10"/>
      <point x="281" y="-10" type="curve" smooth="yes"/>
      <point x="418" y="-10"/>
      <point x="526" y="103"/>
      <point x="526" y="246" type="curve" smooth="yes"/>
      <point x="526" y="390"/>
      <point x="418" y="503"/>
      <point x="281" y="502" type="curve" smooth="yes"/>
      <point x="215" y="502"/>
      <point x="156" y="478"/>
      <point x="112" y="433" type="curve"/>
      <point x="112" y="711" type="line"/>
      <point x="68" y="700" type="line"/>
    </contour>
    <contour>
      <point x="281" y="32" type="curve" smooth="yes"/>
      <point x="210" y="32"/>
      <point x="147" y="67"/>
      <point x="112" y="114" type="curve"/>
      <point x="112" y="378" type="line"/>
      <point x="145" y="427"/>
      <point x="208" y="460"/>
      <point x="281" y="460" type="curve" smooth="yes"/>
      <point x="393" y="460"/>
      <point x="481" y="366"/>
      <point x="481" y="246" type="curve" smooth="yes"/>
      <point x="481" y="126"/>
      <point x="393" y="32"/>
    </contour>
  </outline>
</glyph>
<glyph name="c" format="2">
  <advance width="504"/>
  <unicode hex="0063"/>
  <anchor x="290" y="492" name="top"/>
  <anchor x="291" y="0" name="bottom"/>
  <outline>
    <contour>
      <point x="290" y="-10" type="curve" smooth="yes"/>
      <point x="357" y="-10"/>
      <point x="428" y="18"/>
      <point x="479" y="65" type="curve"/>
      <point x="449" y="101" type="line"/>
      <point x="406" y="59"/>
      <point x="348" y="32"/>
      <point x="290" y="32" type="curve" smooth="yes"/>
      <point x="178" y="32"/>
      <point x="90" y="126"/>
      <point x="90" y="246" type="curve" smooth="yes"/>
      <point x="90" y="366"/>
      <point x="178" y="460"/>
      <point x="290" y="460" type="curve" smooth="yes"/>
      <point x="348" y="460"/>
      <point x="406" y="433"/>
      <point x="449" y="391" type="curve"/>
      <point x="479" y="427" type="line"/>
      <point x="428" y="474"/>
      <point x="357" y="502"/>
      <point x="290" y="502" type="curve" smooth="yes"/>
      <point x="153" y="502"/>
      <point x="45" y="390"/>
      <point x="45" y="246" type="curve" smooth="yes"/>
      <point x="45" y="102"/>
      <point x="153" y="-10"/>
    </contour>
  </outline>
</glyph>
<glyph name="e" format="2">
  <advance width="549"/>
  <unicode hex="0065"/>
  <anchor x="281" y="492" name="top"/>
  <anchor x="365" y="0" name="bottom"/>
  <outline>
    <contour>
      <point x="290" y="-10" type="curve" smooth="yes"/>
      <point x="355" y="-10"/>
      <point x="415" y="8"/>
      <point x="469" y="47" type="curve"/>
      <point x="443" y="82" type="line"/>
      <point x="404" y="51"/>
      <point x="346" y="32"/>
      <point x="290" y="32" type="curve" smooth="yes"/>
      <point x="182" y="32"/>
      <point x="96" y="120"/>
      <point x="90" y="234" type="curve"/>
      <point x="509" y="234" type="line"/>
      <point x="509" y="252" type="line" smooth="yes"/>
      <point x="509" y="389"/>
      <point x="413" y="502"/>
      <point x="286" y="502" type="curve" smooth="yes"/>
      <point x="149" y="502"/>
      <point x="45" y="390"/>
      <point x="45" y="246" type="curve" smooth="yes"/>
      <point x="45" y="102"/>
      <point x="153" y="-10"/>
    </contour>
    <contour>
      <point x="92" y="276" type="line"/>
      <point x="104" y="381"/>
      <point x="183" y="460"/>
      <point x="285" y="460" type="curve" smooth="yes"/>
      <point x="380" y="460"/>
      <point x="452" y="378"/>
      <point x="462" y="276" type="curve"/>
    </contour>
  </outline>
</glyph>
<glyph name="f" format="2">
  <advance width="348"/>
  <unicode hex="0066"/>
  <outline>
    <contour>
      <point x="135" y="0" type="line"/>
      <point x="179" y="0" type="line"/>
      <point x="179" y="452" type="line"/>
      <point x="331" y="452" type="line"/>
      <point x="331" y="492" type="line"/>
      <point x="179" y="492" type="line"/>
      <point x="179" y="600" type="line" smooth="yes"/>
      <point x="179" y="669"/>
      <point x="209" y="698"/>
      <point x="270" y="698" type="curve" smooth="yes"/>
      <point x="293" y="698"/>
      <point x="308" y="695"/>
      <point x="331" y="688" type="curve"/>
      <point x="331" y="731" type="line"/>
      <point x="312" y="737"/>
      <point x="296" y="740"/>
      <point x="271" y="740" type="curve" smooth="yes"/>
      <point x="183" y="740"/>
      <point x="135" y="690"/>
      <point x="135" y="601" type="curve" smooth="yes"/>
      <point x="135" y="492" type="line"/>
      <point x="17" y="492" type="line"/>
      <point x="17" y="452" type="line"/>
      <point x="135" y="452" type="line"/>
    </contour>
  </outline>
</glyph>
<glyph name="h" format="2">
  <advance width="529"/>
  <unicode hex="0068"/>
  <anchor x="89" y="700" name="top"/>
  <outline>
    <contour>
      <point x="68" y="0" type="line"/>
      <point x="112" y="0" type="line"/>
      <point x="112" y="370" type="line"/>
      <point x="143" y="428"/>
      <point x="198" y="461"/>
      <point x="265" y="461" type="curve" smooth="yes"/>
      <point x="361" y="461"/>
      <point x="419" y="400"/>
      <point x="419" y="302" type="curve" smooth="yes"/>
      <point x="419" y="0" type="line"/>
      <point x="463" y="0" type="line"/>
      <point x="463" y="314" type="line" smooth="yes"/>
      <point x="463" y="426"/>
      <point x="387" y="502"/>
      <point x="275" y="502" type="curve" smooth="yes"/>
      <point x="207" y="502"/>
      <point x="152" y="476"/>
      <point x="112" y="423" type="curve"/>
      <point x="112" y="711" type="line"/>
      <point x="68" y="700" type="line"/>
    </contour>
  </outline>
</glyph>
<glyph name="j" format="2">
  <advance width="180"/>
  <unicode hex="006A"/>
  <outline>
    <contour>
      <point x="90" y="604" type="curve" smooth="yes"/>
      <point x="111" y="604"/>
      <point x="127" y="621"/>
      <point x="127" y="641" type="curve" smooth="yes"/>
      <point x="127" y="661"/>
      <point x="111" y="678"/>
      <point x="90" y="678" type="curve" smooth="yes"/>
      <point x="69" y="678"/>
      <point x="53" y="661"/>
      <point x="53" y="641" type="curve" smooth="yes"/>
      <point x="53" y="621"/>
      <point x="69" y="604"/>
    </contour>
    <contour>
      <point x="2" y="-214" type="curve" smooth="yes"/>
      <point x="74" y="-214"/>
      <point x="112" y="-173"/>
      <point x="112" y="-102" type="curve" smooth="yes"/>
      <point x="112" y="492" type="line"/>
      <point x="68" y="492" type="line"/>
      <point x="68" y="-97" type="line" smooth="yes"/>
      <point x="68" y="-150"/>
      <point x="49" y="-171"/>
      <point x="1" y="-171" type="curve" smooth="yes"/>
      <point x="-12" y="-171"/>
      <point x="-21" y="-170"/>
      <point x="-33" y="-167" type="curve"/>
      <point x="-33" y="-211" type="line"/>
      <point x="-20" y="-212"/>
      <point x="-12" y="-214"/>
    </contour>
  </outline>
</glyph>
<glyph name="k" format="2">
  <advance width="461"/>
  <unicode hex="006B"/>
  <anchor x="231" y="0" name="bottom"/>
  <outline>
    <contour>
      <point x="68" y="0" type="line"/>
      <point x="112" y="0" type="line"/>
      <point x="112" y="242" type="line"/>
      <point x="397" y="0" type="line"/>
      <point x="464" y="0" type="line"/>
      <point x="162" y="254" type="line"/>
      <point x="452" y="492" type="line"/>
      <point x="390" y="492" type="line"/>
      <point x="112" y="263" type="line"/>
      <point x="112" y="711" type="line"/>
      <point x="68" y="700" type="line"/>
    </contour>
  </outline>
</glyph>
<glyph name="l" format="2">
  <advance width="180"/>
  <unicode hex="006C"/>
  <anchor x="90" y="700" name="top"/>
  <anchor x="90" y="0" name="bottom"/>
  <outline>
    <contour>
      <point x="68" y="0" type="line"/>
      <point x="112" y="0" type="line"/>
      <point x="112" y="711" type="line"/>
      <point x="68" y="700" type="line"/>
    </contour>
  </outline>
</glyph>
<glyph name="m" format="2">
  <advance width="838"/>
  <unicode hex="006D"/>
  <outline>
    <contour>
      <point x="68" y="0" type="line"/>
      <point x="112" y="0" type="line"/>
      <point x="112" y="375" type="line"/>
      <point x="145" y="430"/>
      <point x="193" y="461"/>
      <point x="254" y="461" type="curve" smooth="yes"/>
      <point x="344" y="461"/>
      <point x="398" y="400"/>
      <point x="398" y="302" type="curve" smooth="yes"/>
      <point x="398" y="0" type="line"/>
      <point x="442" y="0" type="line"/>
      <point x="442" y="314" type="line" smooth="yes"/>
      <point x="442" y="332"/>
      <point x="440" y="349"/>
      <point x="436" y="366" type="curve"/>
      <point x="469" y="425"/>
      <point x="519" y="461"/>
      <point x="584" y="461" type="curve" smooth="yes"/>
      <point x="674" y="461"/>
      <point x="728" y="400"/>
      <point x="728" y="302" type="curve" smooth="yes"/>
      <point x="728" y="0" type="line"/>
      <point x="772" y="0" type="line"/>
      <point x="772" y="314" type="line" smooth="yes"/>
      <point x="772" y="426"/>
      <point x="700" y="502"/>
      <point x="594" y="502" type="curve" smooth="yes"/>
      <point x="520" y="502"/>
      <point x="464" y="468"/>
      <point x="423" y="404" type="curve"/>
      <point x="394" y="464"/>
      <point x="335" y="502"/>
      <point x="264" y="502" type="curve" smooth="yes"/>
      <point x="199" y="502"/>
      <point x="150" y="477"/>
      <point x="112" y="428" type="curve"/>
      <point x="112" y="492" type="line"/>
      <point x="68" y="492" type="line"/>
    </contour>
  </outline>
</glyph>
<glyph name="n" format="2">
  <advance width="529"/>
  <unicode hex="006E"/>
  <anchor x="266" y="492" name="top"/>
  <anchor x="266" y="0" name="bottom"/>
  <outline>
    <contour>
      <point x="68" y="0" type="line"/>
      <point x="112" y="0" type="line"/>
      <point x="112" y="370" type="line"/>
      <point x="143" y="428"/>
      <point x="198" y="461"/>
      <point x="265" y="461" type="curve" smooth="yes"/>
      <point x="361" y="461"/>
      <point x="419" y="400"/>
      <point x="419" y="302" type="curve"/>
      <point x="419" y="0" type="line"/>
      <point x="463" y="0" type="line"/>
      <point x="463" y="314" type="line" smooth="yes"/>
      <point x="463" y="426"/>
      <point x="387" y="502"/>
      <point x="275" y="502" type="curve"/>
      <point x="207" y="502"/>
      <point x="152" y="476"/>
      <point x="112" y="423" type="curve"/>
      <point x="112" y="492" type="line"/>
      <point x="68" y="492" type="line"/>
    </contour>
  </outline>
</glyph>
<glyph name="o" format="2">
  <advance width="580"/>
  <unicode hex="006F"/>
  <guideline x="466" y="247" angle="0.0" identifier="TeW4s3YEME"/>
  <anchor x="290" y="492" name="top"/>
  <outline>
    <contour>
      <point x="290" y="-10" type="curve" smooth="yes"/>
      <point x="427" y="-10"/>
      <point x="535" y="103"/>
      <point x="535" y="246" type="curve" smooth="yes"/>
      <point x="535" y="390"/>
      <point x="427" y="502"/>
      <point x="290" y="502" type="curve" smooth="yes"/>
      <point x="153" y="502"/>
      <point x="45" y="390"/>
      <point x="45" y="246" type="curve" smooth="yes"/>
      <point x="45" y="103"/>
      <point x="153" y="-10"/>
    </contour>
    <contour>
      <point x="290" y="32" type="curve" smooth="yes"/>
      <point x="178" y="32"/>
      <point x="90" y="126"/>
      <point x="90" y="246" type="curve" smooth="yes"/>
      <point x="90" y="366"/>
      <point x="178" y="460"/>
      <point x="290" y="460" type="curve" smooth="yes"/>
      <point x="402" y="460"/>
      <point x="490" y="366"/>
      <point x="490" y="246" type="curve" smooth="yes"/>
      <point x="490" y="126"/>
      <point x="402" y="32"/>
    </contour>
  </outline>
</glyph>
<glyph name="p" format="2">
  <advance width="571"/>
  <unicode hex="0070"/>
  <outline>
    <contour>
      <point x="68" y="-204" type="line"/>
      <point x="112" y="-204" type="line"/>
      <point x="112" y="58" type="line"/>
      <point x="158" y="17"/>
      <point x="218" y="-10"/>
      <point x="281" y="-10" type="curve" smooth="yes"/>
      <point x="418" y="-10"/>
      <point x="526" y="103"/>
      <point x="526" y="246" type="curve" smooth="yes"/>
      <point x="526" y="390"/>
      <point x="418" y="503"/>
      <point x="281" y="502" type="curve" smooth="yes"/>
      <point x="215" y="502"/>
      <point x="156" y="478"/>
      <point x="112" y="433" type="curve"/>
      <point x="112" y="492" type="line"/>
      <point x="68" y="492" type="line"/>
    </contour>
    <contour>
      <point x="281" y="32" type="curve" smooth="yes"/>
      <point x="210" y="32"/>
      <point x="147" y="67"/>
      <point x="112" y="114" type="curve"/>
      <point x="112" y="378" type="line"/>
      <point x="145" y="427"/>
      <point x="208" y="460"/>
      <point x="281" y="460" type="curve" smooth="yes"/>
      <point x="393" y="460"/>
      <point x="481" y="366"/>
      <point x="481" y="246" type="curve" smooth="yes"/>
      <point x="481" y="126"/>
      <point x="393" y="32"/>
    </contour>
  </outline>
</glyph>
<glyph name="q" format="2">
  <advance width="571"/>
  <unicode hex="0071"/>
  <outline>
    <contour>
      <point x="459" y="-204" type="line"/>
      <point x="503" y="-204" type="line"/>
      <point x="503" y="492" type="line"/>
      <point x="459" y="492" type="line"/>
      <point x="459" y="434" type="line"/>
      <point x="413" y="475"/>
      <point x="353" y="502"/>
      <point x="290" y="502" type="curve" smooth="yes"/>
      <point x="153" y="502"/>
      <point x="45" y="389"/>
      <point x="45" y="246" type="curve" smooth="yes"/>
      <point x="45" y="102"/>
      <point x="153" y="-11"/>
      <point x="290" y="-10" type="curve" smooth="yes"/>
      <point x="356" y="-10"/>
      <point x="415" y="14"/>
      <point x="459" y="59" type="curve"/>
    </contour>
    <contour>
      <point x="290" y="32" type="curve" smooth="yes"/>
      <point x="178" y="32"/>
      <point x="90" y="126"/>
      <point x="90" y="246" type="curve" smooth="yes"/>
      <point x="90" y="366"/>
      <point x="178" y="460"/>
      <point x="290" y="460" type="curve" smooth="yes"/>
      <point x="361" y="460"/>
      <point x="424" y="425"/>
      <point x="459" y="378" type="curve"/>
      <point x="459" y="114" type="line"/>
      <point x="426" y="65"/>
      <point x="363" y="32"/>
    </contour>
  </outline>
</glyph>
<glyph name="r" format="2">
  <advance width="318"/>
  <unicode hex="0072"/>
  <anchor x="160" y="493" name="top"/>
  <anchor x="92" y="1" name="bottom"/>
  <outline>
    <contour>
      <point x="69" y="1" type="line"/>
      <point x="113" y="1" type="line"/>
      <point x="113" y="346" type="line"/>
      <point x="139" y="421"/>
      <point x="187" y="461"/>
      <point x="253" y="461" type="curve" smooth="yes"/>
      <point x="266" y="461"/>
      <point x="281" y="459"/>
      <point x="296" y="454" type="curve"/>
      <point x="296" y="499" type="line"/>
      <point x="279" y="502"/>
      <point x="267" y="503"/>
      <point x="253" y="503" type="curve" smooth="yes"/>
      <point x="191" y="503"/>
      <point x="141" y="470"/>
      <point x="113" y="415" type="curve"/>
      <point x="113" y="493" type="line"/>
      <point x="69" y="493" type="line"/>
    </contour>
  </outline>
</glyph>
<glyph name="s" format="2">
  <advance width="423"/>
  <unicode hex="0073"/>
  <note>
Version created Fri Aug  3 17:49:29 2018
</note>
  <anchor x="213" y="492" name="top"/>
  <anchor x="213" y="0" name="bottom"/>
  <outline>
    <contour>
      <point x="208" y="-10" type="curve" smooth="yes"/>
      <point x="323" y="-10"/>
      <point x="403" y="53"/>
      <point x="403" y="137" type="curve" smooth="yes"/>
      <point x="403" y="207"/>
      <point x="356" y="255"/>
      <point x="257" y="267" type="curve" smooth="yes"/>
      <point x="177" y="277" type="line" smooth="yes"/>
      <point x="104" y="286"/>
      <point x="73" y="316"/>
      <point x="73" y="364" type="curve" smooth="yes"/>
      <point x="73" y="428"/>
      <point x="128" y="461"/>
      <point x="205" y="461" type="curve" smooth="yes"/>
      <point x="262" y="461"/>
      <point x="311" y="442"/>
      <point x="367" y="402" type="curve"/>
      <point x="393" y="438" type="line"/>
      <point x="330" y="483"/>
      <point x="271" y="502"/>
      <point x="204" y="502" type="curve" smooth="yes"/>
      <point x="99" y="502"/>
      <point x="29" y="446"/>
      <point x="29" y="364" type="curve" smooth="yes"/>
      <point x="29" y="291"/>
      <point x="79" y="246"/>
      <point x="172" y="235" type="curve" smooth="yes"/>
      <point x="253" y="225" type="line" smooth="yes"/>
      <point x="327" y="216"/>
      <point x="359" y="183"/>
      <point x="359" y="137" type="curve" smooth="yes"/>
      <point x="359" y="74"/>
      <point x="299" y="31"/>
      <point x="208" y="31" type="curve" smooth="yes"/>
      <point x="146" y="31"/>
      <point x="87" y="56"/>
      <point x="47" y="98" type="curve"/>
      <point x="13" y="70" type="line"/>
      <point x="60" y="18"/>
      <point x="132" y="-10"/>
    </contour>
  </outline>
</glyph>
<glyph name="t" format="2">
  <advance width="338"/>
  <unicode hex="0074"/>
  <anchor x="209" y="0" name="bottom"/>
  <outline>
    <contour>
      <point x="241" y="-10" type="curve" smooth="yes"/>
      <point x="269" y="-10"/>
      <point x="295" y="-6"/>
      <point x="321" y="3" type="curve"/>
      <point x="321" y="46" type="line"/>
      <point x="298" y="36"/>
      <point x="279" y="32"/>
      <point x="249" y="32" type="curve" smooth="yes"/>
      <point x="192" y="32"/>
      <point x="169" y="55"/>
      <point x="169" y="111" type="curve" smooth="yes"/>
      <point x="169" y="452" type="line"/>
      <point x="321" y="452" type="line"/>
      <point x="321" y="492" type="line"/>
      <point x="169" y="492" type="line"/>
      <point x="169" y="630" type="line"/>
      <point x="125" y="616" type="line"/>
      <point x="125" y="492" type="line"/>
      <point x="17" y="492" type="line"/>
      <point x="17" y="452" type="line"/>
      <point x="125" y="452" type="line"/>
      <point x="125" y="96" type="line" smooth="yes"/>
      <point x="125" y="29"/>
      <point x="166" y="-10"/>
    </contour>
  </outline>
</glyph>
<glyph name="u" format="2">
  <advance width="529"/>
  <unicode hex="0075"/>
  <anchor x="264" y="492" name="top"/>
  <anchor x="461" y="0" name="bottom"/>
  <outline>
    <contour>
      <point x="254" y="-10" type="curve" smooth="yes"/>
      <point x="323" y="-10"/>
      <point x="378" y="16"/>
      <point x="417" y="68" type="curve"/>
      <point x="417" y="0" type="line"/>
      <point x="461" y="0" type="line"/>
      <point x="461" y="492" type="line"/>
      <point x="417" y="492" type="line"/>
      <point x="417" y="122" type="line"/>
      <point x="386" y="64"/>
      <point x="331" y="31"/>
      <point x="264" y="31" type="curve" smooth="yes"/>
      <point x="168" y="31"/>
      <point x="110" y="92"/>
      <point x="110" y="190" type="curve" smooth="yes"/>
      <point x="110" y="492" type="line"/>
      <point x="66" y="492" type="line"/>
      <point x="66" y="178" type="line" smooth="yes"/>
      <point x="66" y="66"/>
      <point x="143" y="-10"/>
    </contour>
  </outline>
</glyph>
<glyph name="y" format="2">
  <advance width="479"/>
  <unicode hex="0079"/>
  <guideline x="240" y="492" angle="0.0" color="0.999,0.001,0.001,0.999" identifier="3oXsD9VrLK"/>
  <anchor x="241" y="492" name="top"/>
  <outline>
    <contour>
      <point x="75" y="-212" type="curve" smooth="yes"/>
      <point x="138" y="-212"/>
      <point x="178" y="-178"/>
      <point x="216" y="-92" type="curve" smooth="yes"/>
      <point x="472" y="492" type="line"/>
      <point x="423" y="492" type="line"/>
      <point x="236" y="55" type="line"/>
      <point x="57" y="492" type="line"/>
      <point x="7" y="492" type="line"/>
      <point x="212" y="2" type="line"/>
      <point x="172" y="-88" type="line" smooth="yes"/>
      <point x="147" y="-143"/>
      <point x="116" y="-168"/>
      <point x="73" y="-168" type="curve" smooth="yes"/>
      <point x="56" y="-168"/>
      <point x="46" y="-167"/>
      <point x="34" y="-164" type="curve"/>
      <point x="34" y="-208" type="line"/>
      <point x="44" y="-210"/>
      <point x="60" y="-212"/>
    </contour>
  </outline>
</glyph>
<glyph name="z" format="2">
  <advance width="449"/>
  <unicode hex="007A"/>
  <anchor x="224" y="492" name="top"/>
  <outline>
    <contour>
      <point x="36" y="0" type="line"/>
      <point x="409" y="0" type="line"/>
      <point x="409" y="42" type="line"/>
      <point x="92" y="42" type="line"/>
      <point x="407" y="453" type="line"/>
      <point x="407" y="492" type="line"/>
      <point x="39" y="492" type="line"/>
      <point x="39" y="450" type="line"/>
      <point x="351" y="450" type="line"/>
      <point x="36" y="39" type="line"/>
    </contour>
  </outline>
</glyph>
<glyph name="braceleft" format="2">
  <advance width="360"/>
  <unicode hex="007B"/>
  <outline>
    <contour>
      <point x="246" y="-219" type="curve" smooth="yes"/>
      <point x="271" y="-219"/>
      <point x="292" y="-214"/>
      <point x="321" y="-204" type="curve"/>
      <point x="308" y="-167" type="line"/>
      <point x="283" y="-177"/>
      <point x="265" y="-179"/>
      <point x="246" y="-179" type="curve" smooth="yes"/>
      <point x="176" y="-179"/>
      <point x="149" y="-123"/>
      <point x="180" y="-43" type="curve" smooth="yes"/>
      <point x="226" y="75" type="line" smooth="yes"/>
      <point x="256" y="153"/>
      <point x="229" y="223"/>
      <point x="164" y="246" type="curve"/>
      <point x="229" y="269"/>
      <point x="256" y="339"/>
      <point x="226" y="417" type="curve" smooth="yes"/>
      <point x="180" y="535" type="line" smooth="yes"/>
      <point x="149" y="615"/>
      <point x="176" y="671"/>
      <point x="246" y="671" type="curve" smooth="yes"/>
      <point x="265" y="671"/>
      <point x="283" y="669"/>
      <point x="308" y="659" type="curve"/>
      <point x="321" y="696" type="line"/>
      <point x="292" y="706"/>
      <point x="271" y="711"/>
      <point x="246" y="711" type="curve" smooth="yes"/>
      <point x="147" y="711"/>
      <point x="101" y="627"/>
      <point x="142" y="521" type="curve" smooth="yes"/>
      <point x="188" y="403" type="line" smooth="yes"/>
      <point x="217" y="330"/>
      <point x="191" y="267"/>
      <point x="111" y="267" type="curve" smooth="yes"/>
      <point x="33" y="267" type="line"/>
      <point x="33" y="225" type="line"/>
      <point x="111" y="225" type="line" smooth="yes"/>
      <point x="191" y="225"/>
      <point x="217" y="162"/>
      <point x="188" y="89" type="curve" smooth="yes"/>
      <point x="142" y="-29" type="line" smooth="yes"/>
      <point x="101" y="-135"/>
      <point x="147" y="-219"/>
    </contour>
  </outline>
</glyph>
<glyph name="asciitilde" format="2">
  <advance width="600"/>
  <unicode hex="007E"/>
  <outline>
    <contour>
      <point x="112" y="308" type="line"/>
      <point x="121" y="373"/>
      <point x="146" y="404"/>
      <point x="187" y="404" type="curve" smooth="yes"/>
      <point x="204" y="404"/>
      <point x="218" y="399"/>
      <point x="253" y="380" type="curve" smooth="yes"/>
      <point x="326" y="341" type="line" smooth="yes"/>
      <point x="363" y="321"/>
      <point x="389" y="312"/>
      <point x="414" y="312" type="curve" smooth="yes"/>
      <point x="475" y="312"/>
      <point x="516" y="360"/>
      <point x="526" y="446" type="curve"/>
      <point x="489" y="452" type="line"/>
      <point x="480" y="387"/>
      <point x="455" y="356"/>
      <point x="414" y="356" type="curve" smooth="yes"/>
      <point x="395" y="356"/>
      <point x="378" y="362"/>
      <point x="348" y="379" type="curve" smooth="yes"/>
      <point x="275" y="418" type="line" smooth="yes"/>
      <point x="235" y="440"/>
      <point x="212" y="448"/>
      <point x="188" y="448" type="curve" smooth="yes"/>
      <point x="127" y="448"/>
      <point x="85" y="399"/>
      <point x="74" y="313" type="curve"/>
    </contour>
  </outline>
</glyph>
<glyph name="cent" format="2">
  <advance width="508"/>
  <unicode hex="00A2"/>
  <outline>
    <contour>
      <point x="261" y="-116" type="line"/>
      <point x="303" y="-116" type="line"/>
      <point x="303" y="-10" type="line"/>
      <point x="366" y="-6"/>
      <point x="431" y="21"/>
      <point x="479" y="65" type="curve"/>
      <point x="449" y="101" type="line"/>
      <point x="409" y="62"/>
      <point x="357" y="36"/>
      <point x="303" y="32" type="curve"/>
      <point x="303" y="460" type="line"/>
      <point x="357" y="456"/>
      <point x="409" y="430"/>
      <point x="449" y="391" type="curve"/>
      <point x="479" y="427" type="line"/>
      <point x="431" y="471"/>
      <point x="366" y="498"/>
      <point x="303" y="502" type="curve"/>
      <point x="303" y="608" type="line"/>
      <point x="261" y="608" type="line"/>
      <point x="261" y="500" type="line"/>
      <point x="138" y="486"/>
      <point x="45" y="380"/>
      <point x="45" y="246" type="curve" smooth="yes"/>
      <point x="45" y="112"/>
      <point x="138" y="6"/>
      <point x="261" y="-8" type="curve"/>
    </contour>
    <contour>
      <point x="90" y="246" type="curve" smooth="yes"/>
      <point x="90" y="355"/>
      <point x="163" y="443"/>
      <point x="261" y="458" type="curve"/>
      <point x="261" y="34" type="line"/>
      <point x="163" y="49"/>
      <point x="90" y="137"/>
    </contour>
  </outline>
</glyph>
<glyph name="uni00A6" format="2">
  <advance width="250"/>
  <unicode hex="00A6"/>
  <outline>
    <contour>
      <point x="104" y="291" type="line"/>
      <point x="146" y="291" type="line"/>
      <point x="146" y="700" type="line"/>
      <point x="104" y="700" type="line"/>
    </contour>
    <contour>
      <point x="104" y="-204" type="line"/>
      <point x="146" y="-204" type="line"/>
      <point x="146" y="205" type="line"/>
      <point x="104" y="205" type="line"/>
    </contour>
  </outline>
</glyph>
<glyph name="dieresis" format="2">
  <advance width="600"/>
  <unicode hex="00A8"/>
  <outline>
    <contour>
      <point x="222" y="603" type="curve" smooth="yes"/>
      <point x="244" y="603"/>
      <point x="260" y="620"/>
      <point x="260" y="641" type="curve" smooth="yes"/>
      <point x="260" y="662"/>
      <point x="244" y="679"/>
      <point x="222" y="679" type="curve" smooth="yes"/>
      <point x="200" y="679"/>
      <point x="184" y="662"/>
      <point x="184" y="641" type="curve" smooth="yes"/>
      <point x="184" y="620"/>
      <point x="200" y="603"/>
    </contour>
    <contour>
      <point x="378" y="603" type="curve" smooth="yes"/>
      <point x="400" y="603"/>
      <point x="416" y="620"/>
      <point x="416" y="641" type="curve" smooth="yes"/>
      <point x="416" y="662"/>
      <point x="400" y="679"/>
      <point x="378" y="679" type="curve" smooth="yes"/>
      <point x="356" y="679"/>
      <point x="340" y="662"/>
      <point x="340" y="641" type="curve" smooth="yes"/>
      <point x="340" y="620"/>
      <point x="356" y="603"/>
    </contour>
  </outline>
</glyph>
<glyph name="copyright" format="2">
  <advance width="812"/>
  <unicode hex="00A9"/>
  <outline>
    <contour>
      <point x="418" y="167" type="curve" smooth="yes"/>
      <point x="468" y="167"/>
      <point x="515" y="186"/>
      <point x="552" y="222" type="curve"/>
      <point x="527" y="250" type="line"/>
      <point x="496" y="220"/>
      <point x="459" y="203"/>
      <point x="418" y="203" type="curve" smooth="yes"/>
      <point x="340" y="203"/>
      <point x="280" y="267"/>
      <point x="280" y="350" type="curve" smooth="yes"/>
      <point x="280" y="433"/>
      <point x="340" y="497"/>
      <point x="418" y="497" type="curve" smooth="yes"/>
      <point x="459" y="497"/>
      <point x="496" y="480"/>
      <point x="527" y="450" type="curve"/>
      <point x="552" y="478" type="line"/>
      <point x="515" y="514"/>
      <point x="468" y="533"/>
      <point x="418" y="533" type="curve" smooth="yes"/>
      <point x="318" y="533"/>
      <point x="241" y="452"/>
      <point x="241" y="350" type="curve" smooth="yes"/>
      <point x="241" y="248"/>
      <point x="318" y="167"/>
    </contour>
    <contour>
      <point x="406" y="-11" type="curve" smooth="yes"/>
      <point x="605" y="-11"/>
      <point x="764" y="144"/>
      <point x="764" y="350" type="curve" smooth="yes"/>
      <point x="764" y="556"/>
      <point x="605" y="711"/>
      <point x="406" y="711" type="curve" smooth="yes"/>
      <point x="207" y="711"/>
      <point x="48" y="556"/>
      <point x="48" y="350" type="curve" smooth="yes"/>
      <point x="48" y="144"/>
      <point x="207" y="-11"/>
    </contour>
    <contour>
      <point x="406" y="25" type="curve" smooth="yes"/>
      <point x="226" y="25"/>
      <point x="87" y="170"/>
      <point x="87" y="350" type="curve" smooth="yes"/>
      <point x="87" y="530"/>
      <point x="226" y="675"/>
      <point x="406" y="675" type="curve" smooth="yes"/>
      <point x="586" y="675"/>
      <point x="725" y="530"/>
      <point x="725" y="350" type="curve" smooth="yes"/>
      <point x="725" y="170"/>
      <point x="586" y="25"/>
    </contour>
  </outline>
</glyph>
<glyph name="ordfeminine" format="2">
  <advance width="394"/>
  <unicode hex="00AA"/>
  <outline>
    <contour>
      <point x="173" y="325" type="curve" smooth="yes"/>
      <point x="223" y="325"/>
      <point x="265" y="341"/>
      <point x="298" y="372" type="curve"/>
      <point x="298" y="332" type="line"/>
      <point x="337" y="332" type="line"/>
      <point x="337" y="584" type="line" smooth="yes"/>
      <point x="337" y="666"/>
      <point x="285" y="711"/>
      <point x="195" y="711" type="curve" smooth="yes"/>
      <point x="148" y="711"/>
      <point x="106" y="697"/>
      <point x="59" y="675" type="curve"/>
      <point x="75" y="643" type="line"/>
      <point x="118" y="665"/>
      <point x="154" y="677"/>
      <point x="192" y="677" type="curve" smooth="yes"/>
      <point x="261" y="677"/>
      <point x="298" y="644"/>
      <point x="298" y="579" type="curve" smooth="yes"/>
      <point x="298" y="520" type="line"/>
      <point x="265" y="540"/>
      <point x="225" y="551"/>
      <point x="183" y="551" type="curve" smooth="yes"/>
      <point x="93" y="551"/>
      <point x="36" y="507"/>
      <point x="36" y="437" type="curve" smooth="yes"/>
      <point x="36" y="369"/>
      <point x="93" y="325"/>
    </contour>
    <contour>
      <point x="178" y="359" type="curve"/>
      <point x="119" y="359"/>
      <point x="75" y="390"/>
      <point x="75" y="437" type="curve" smooth="yes"/>
      <point x="75" y="486"/>
      <point x="117" y="518"/>
      <point x="181" y="518" type="curve" smooth="yes"/>
      <point x="229" y="518"/>
      <point x="266" y="506"/>
      <point x="298" y="483" type="curve"/>
      <point x="298" y="409" type="line"/>
      <point x="267" y="377"/>
      <point x="228" y="359"/>
    </contour>
  </outline>
</glyph>
<glyph name="uni00AC" format="2">
  <advance width="600"/>
  <unicode hex="00AC"/>
  <outline>
    <contour>
      <point x="478" y="0" type="line"/>
      <point x="519" y="0" type="line"/>
      <point x="519" y="300" type="line"/>
      <point x="82" y="300" type="line"/>
      <point x="82" y="259" type="line"/>
      <point x="478" y="259" type="line"/>
    </contour>
  </outline>
</glyph>
<glyph name="registered" format="2">
  <advance width="490"/>
  <unicode hex="00AE"/>
  <outline>
    <contour>
      <point x="244" y="313" type="curve" smooth="yes"/>
      <point x="354" y="313"/>
      <point x="440" y="399"/>
      <point x="440" y="512" type="curve" smooth="yes"/>
      <point x="440" y="625"/>
      <point x="354" y="711"/>
      <point x="244" y="711" type="curve" smooth="yes"/>
      <point x="134" y="711"/>
      <point x="48" y="625"/>
      <point x="48" y="512" type="curve" smooth="yes"/>
      <point x="48" y="399"/>
      <point x="134" y="313"/>
    </contour>
    <contour>
      <point x="244" y="343" type="curve" smooth="yes"/>
      <point x="151" y="343"/>
      <point x="80" y="414"/>
      <point x="80" y="512" type="curve" smooth="yes"/>
      <point x="80" y="610"/>
      <point x="151" y="681"/>
      <point x="244" y="681" type="curve" smooth="yes"/>
      <point x="337" y="681"/>
      <point x="408" y="610"/>
      <point x="408" y="512" type="curve" smooth="yes"/>
      <point x="408" y="414"/>
      <point x="337" y="343"/>
    </contour>
    <contour>
      <point x="181" y="419" type="line"/>
      <point x="208" y="419" type="line"/>
      <point x="208" y="491" type="line"/>
      <point x="249" y="491" type="line"/>
      <point x="295" y="419" type="line"/>
      <point x="326" y="419" type="line"/>
      <point x="277" y="497" type="line"/>
      <point x="300" y="507"/>
      <point x="314" y="527"/>
      <point x="314" y="550" type="curve" smooth="yes"/>
      <point x="314" y="589"/>
      <point x="286" y="607"/>
      <point x="251" y="607" type="curve" smooth="yes"/>
      <point x="181" y="607" type="line"/>
    </contour>
    <contour>
      <point x="248" y="583" type="line" smooth="yes"/>
      <point x="270" y="583"/>
      <point x="286" y="573"/>
      <point x="286" y="549" type="curve" smooth="yes"/>
      <point x="286" y="528"/>
      <point x="273" y="515"/>
      <point x="248" y="515" type="curve" smooth="yes"/>
      <point x="208" y="515" type="line"/>
      <point x="208" y="583" type="line"/>
    </contour>
  </outline>
</glyph>
<glyph name="degree" format="2">
  <advance width="394"/>
  <unicode hex="00B0"/>
  <outline>
    <contour>
      <point x="340" y="571" type="curve" smooth="yes"/>
      <point x="340" y="647"/>
      <point x="279" y="711"/>
      <point x="198" y="711" type="curve" smooth="yes"/>
      <point x="117" y="711"/>
      <point x="56" y="647"/>
      <point x="56" y="571" type="curve" smooth="yes"/>
      <point x="56" y="495"/>
      <point x="117" y="431"/>
      <point x="198" y="431" type="curve" smooth="yes"/>
      <point x="279" y="431"/>
      <point x="340" y="495"/>
    </contour>
    <contour>
      <point x="96" y="571" type="curve" smooth="yes"/>
      <point x="96" y="627"/>
      <point x="142" y="673"/>
      <point x="198" y="673" type="curve" smooth="yes"/>
      <point x="254" y="673"/>
      <point x="300" y="627"/>
      <point x="300" y="571" type="curve" smooth="yes"/>
      <point x="300" y="515"/>
      <point x="254" y="469"/>
      <point x="198" y="469" type="curve" smooth="yes"/>
      <point x="142" y="469"/>
      <point x="96" y="515"/>
    </contour>
  </outline>
</glyph>
<glyph name="twosuperior" format="2">
  <advance width="284"/>
  <unicode hex="00B2"/>
  <outline>
    <contour>
      <point x="26" y="350" type="line"/>
      <point x="262" y="350" type="line"/>
      <point x="262" y="383" type="line"/>
      <point x="80" y="383" type="line"/>
      <point x="183" y="483" type="line" smooth="yes"/>
      <point x="234" y="532"/>
      <point x="255" y="560"/>
      <point x="255" y="605" type="curve" smooth="yes"/>
      <point x="255" y="662"/>
      <point x="208" y="705"/>
      <point x="140" y="705" type="curve" smooth="yes"/>
      <point x="96" y="705"/>
      <point x="57" y="687"/>
      <point x="20" y="655" type="curve"/>
      <point x="42" y="629" type="line"/>
      <point x="79" y="661"/>
      <point x="106" y="672"/>
      <point x="139" y="672" type="curve" smooth="yes"/>
      <point x="185" y="672"/>
      <point x="219" y="643"/>
      <point x="219" y="603" type="curve" smooth="yes"/>
      <point x="219" y="570"/>
      <point x="201" y="548"/>
      <point x="157" y="505" type="curve" smooth="yes"/>
      <point x="26" y="378" type="line"/>
    </contour>
  </outline>
</glyph>
<glyph name="threesuperior" format="2">
  <advance width="306"/>
  <unicode hex="00B3"/>
  <outline>
    <contour>
      <point x="148" y="345" type="curve" smooth="yes"/>
      <point x="222" y="345"/>
      <point x="275" y="387"/>
      <point x="275" y="445" type="curve" smooth="yes"/>
      <point x="275" y="484"/>
      <point x="247" y="517"/>
      <point x="201" y="530" type="curve"/>
      <point x="241" y="546"/>
      <point x="261" y="578"/>
      <point x="261" y="611" type="curve" smooth="yes"/>
      <point x="261" y="665"/>
      <point x="212" y="705"/>
      <point x="146" y="705" type="curve" smooth="yes"/>
      <point x="101" y="705"/>
      <point x="59" y="689"/>
      <point x="23" y="654" type="curve"/>
      <point x="48" y="629" type="line"/>
      <point x="81" y="661"/>
      <point x="109" y="672"/>
      <point x="146" y="672" type="curve" smooth="yes"/>
      <point x="191" y="672"/>
      <point x="225" y="645"/>
      <point x="225" y="610" type="curve" smooth="yes"/>
      <point x="225" y="574"/>
      <point x="196" y="542"/>
      <point x="147" y="542" type="curve" smooth="yes"/>
      <point x="119" y="542" type="line"/>
      <point x="119" y="511" type="line"/>
      <point x="149" y="511" type="line" smooth="yes"/>
      <point x="205" y="511"/>
      <point x="239" y="483"/>
      <point x="239" y="447" type="curve" smooth="yes"/>
      <point x="239" y="407"/>
      <point x="202" y="378"/>
      <point x="148" y="378" type="curve" smooth="yes"/>
      <point x="108" y="378"/>
      <point x="76" y="388"/>
      <point x="44" y="419" type="curve"/>
      <point x="19" y="394" type="line"/>
      <point x="54" y="361"/>
      <point x="99" y="345"/>
    </contour>
  </outline>
</glyph>
<glyph name="uni00B5" format="2">
  <advance width="531"/>
  <unicode hex="00B5"/>
  <outline>
    <contour>
      <point x="68" y="-204" type="line"/>
      <point x="112" y="-204" type="line"/>
      <point x="112" y="58" type="line"/>
      <point x="144" y="15"/>
      <point x="195" y="-10"/>
      <point x="256" y="-10" type="curve" smooth="yes"/>
      <point x="325" y="-10"/>
      <point x="380" y="16"/>
      <point x="419" y="68" type="curve"/>
      <point x="419" y="0" type="line"/>
      <point x="463" y="0" type="line"/>
      <point x="463" y="492" type="line"/>
      <point x="419" y="492" type="line"/>
      <point x="419" y="122" type="line"/>
      <point x="388" y="64"/>
      <point x="333" y="31"/>
      <point x="266" y="31" type="curve" smooth="yes"/>
      <point x="170" y="31"/>
      <point x="112" y="92"/>
      <point x="112" y="190" type="curve"/>
      <point x="112" y="492" type="line"/>
      <point x="68" y="492" type="line"/>
    </contour>
  </outline>
</glyph>
<glyph name="paragraph" format="2">
  <advance width="626"/>
  <unicode hex="00B6"/>
  <outline>
    <contour>
      <point x="320" y="0" type="line"/>
      <point x="366" y="0" type="line"/>
      <point x="366" y="306" type="line"/>
      <point x="498" y="306" type="line"/>
      <point x="498" y="0" type="line"/>
      <point x="544" y="0" type="line"/>
      <point x="544" y="700" type="line"/>
      <point x="248" y="700" type="line" smooth="yes"/>
      <point x="127" y="700"/>
      <point x="42" y="620"/>
      <point x="42" y="504" type="curve" smooth="yes"/>
      <point x="42" y="388"/>
      <point x="125" y="306"/>
      <point x="250" y="306" type="curve" smooth="yes"/>
      <point x="320" y="306" type="line"/>
    </contour>
    <contour>
      <point x="366" y="349" type="line"/>
      <point x="366" y="657" type="line"/>
      <point x="498" y="657" type="line"/>
      <point x="498" y="349" type="line"/>
    </contour>
    <contour>
      <point x="253" y="349" type="line" smooth="yes"/>
      <point x="148" y="349"/>
      <point x="89" y="416"/>
      <point x="89" y="504" type="curve" smooth="yes"/>
      <point x="89" y="590"/>
      <point x="148" y="657"/>
      <point x="253" y="657" type="curve" smooth="yes"/>
      <point x="320" y="657" type="line"/>
      <point x="320" y="349" type="line"/>
    </contour>
  </outline>
</glyph>
<glyph name="periodcentered" format="2">
  <advance width="250"/>
  <unicode hex="00B7"/>
  <outline>
    <contour>
      <point x="125" y="242" type="curve" smooth="yes"/>
      <point x="146" y="242"/>
      <point x="163" y="259"/>
      <point x="163" y="280" type="curve" smooth="yes"/>
      <point x="163" y="301"/>
      <point x="146" y="318"/>
      <point x="125" y="318" type="curve" smooth="yes"/>
      <point x="104" y="318"/>
      <point x="87" y="301"/>
      <point x="87" y="280" type="curve" smooth="yes"/>
      <point x="87" y="259"/>
      <point x="104" y="242"/>
    </contour>
  </outline>
</glyph>
<glyph name="cedilla" format="2">
  <advance width="600"/>
  <unicode hex="00B8"/>
  <outline>
    <contour>
      <point x="280" y="-224" type="curve" smooth="yes"/>
      <point x="343" y="-224"/>
      <point x="386" y="-189"/>
      <point x="386" y="-138" type="curve" smooth="yes"/>
      <point x="386" y="-92"/>
      <point x="348" y="-61"/>
      <point x="291" y="-60" type="curve"/>
      <point x="307" y="0" type="line"/>
      <point x="274" y="0" type="line"/>
      <point x="250" y="-89" type="line"/>
      <point x="273" y="-89" type="line" smooth="yes"/>
      <point x="321" y="-89"/>
      <point x="349" y="-108"/>
      <point x="349" y="-139" type="curve" smooth="yes"/>
      <point x="349" y="-172"/>
      <point x="322" y="-193"/>
      <point x="280" y="-193" type="curve" smooth="yes"/>
      <point x="250" y="-193"/>
      <point x="222" y="-182"/>
      <point x="195" y="-161" type="curve"/>
      <point x="172" y="-186" type="line"/>
      <point x="198" y="-210"/>
      <point x="238" y="-224"/>
    </contour>
  </outline>
</glyph>
<glyph name="onesuperior" format="2">
  <advance width="151"/>
  <unicode hex="00B9"/>
  <outline>
    <contour>
      <point x="82" y="350" type="line"/>
      <point x="118" y="350" type="line"/>
      <point x="118" y="700" type="line"/>
      <point x="94" y="700" type="line"/>
      <point x="21" y="669" type="line"/>
      <point x="21" y="632" type="line"/>
      <point x="82" y="658" type="line"/>
    </contour>
  </outline>
</glyph>
<glyph name="ordmasculine" format="2">
  <advance width="452"/>
  <unicode hex="00BA"/>
  <outline>
    <contour>
      <point x="226" y="325" type="curve" smooth="yes"/>
      <point x="330" y="325"/>
      <point x="412" y="410"/>
      <point x="412" y="518" type="curve" smooth="yes"/>
      <point x="412" y="626"/>
      <point x="330" y="711"/>
      <point x="226" y="711" type="curve" smooth="yes"/>
      <point x="122" y="711"/>
      <point x="40" y="626"/>
      <point x="40" y="518" type="curve" smooth="yes"/>
      <point x="40" y="410"/>
      <point x="122" y="325"/>
    </contour>
    <contour>
      <point x="226" y="363" type="curve" smooth="yes"/>
      <point x="145" y="363"/>
      <point x="80" y="431"/>
      <point x="80" y="518" type="curve" smooth="yes"/>
      <point x="80" y="605"/>
      <point x="145" y="673"/>
      <point x="226" y="673" type="curve" smooth="yes"/>
      <point x="307" y="673"/>
      <point x="372" y="605"/>
      <point x="372" y="518" type="curve" smooth="yes"/>
      <point x="372" y="431"/>
      <point x="307" y="363"/>
    </contour>
  </outline>
</glyph>
<glyph name="Ccedilla" format="2">
  <advance width="724"/>
  <unicode hex="00C7"/>
  <outline>
    <contour>
      <point x="395" y="-224" type="curve" smooth="yes"/>
      <point x="458" y="-224"/>
      <point x="501" y="-189"/>
      <point x="501" y="-138" type="curve" smooth="yes"/>
      <point x="501" y="-92"/>
      <point x="463" y="-61"/>
      <point x="406" y="-60" type="curve"/>
      <point x="419" y="-11" type="line"/>
      <point x="518" y="-8"/>
      <point x="609" y="29"/>
      <point x="677" y="97" type="curve"/>
      <point x="647" y="132" type="line"/>
      <point x="590" y="70"/>
      <point x="498" y="32"/>
      <point x="407" y="32" type="curve" smooth="yes"/>
      <point x="229" y="32"/>
      <point x="95" y="172"/>
      <point x="95" y="350" type="curve" smooth="yes"/>
      <point x="95" y="528"/>
      <point x="229" y="668"/>
      <point x="407" y="668" type="curve" smooth="yes"/>
      <point x="498" y="668"/>
      <point x="590" y="630"/>
      <point x="647" y="568" type="curve"/>
      <point x="677" y="603" type="line"/>
      <point x="606" y="674"/>
      <point x="511" y="711"/>
      <point x="407" y="711" type="curve" smooth="yes"/>
      <point x="204" y="711"/>
      <point x="48" y="551"/>
      <point x="48" y="350" type="curve" smooth="yes"/>
      <point x="48" y="156"/>
      <point x="193" y="0"/>
      <point x="386" y="-10" type="curve"/>
      <point x="365" y="-89" type="line"/>
      <point x="388" y="-89" type="line" smooth="yes"/>
      <point x="436" y="-89"/>
      <point x="464" y="-108"/>
      <point x="464" y="-139" type="curve" smooth="yes"/>
      <point x="464" y="-172"/>
      <point x="437" y="-193"/>
      <point x="395" y="-193" type="curve" smooth="yes"/>
      <point x="365" y="-193"/>
      <point x="337" y="-182"/>
      <point x="310" y="-161" type="curve"/>
      <point x="287" y="-186" type="line"/>
      <point x="313" y="-210"/>
      <point x="353" y="-224"/>
    </contour>
  </outline>
</glyph>
<glyph name="multiply" format="2">
  <advance width="600"/>
  <unicode hex="00D7"/>
  <outline>
    <contour>
      <point x="152" y="172" type="line"/>
      <point x="300" y="330" type="line"/>
      <point x="448" y="172" type="line"/>
      <point x="478" y="200" type="line"/>
      <point x="328" y="360" type="line"/>
      <point x="478" y="519" type="line"/>
      <point x="448" y="547" type="line"/>
      <point x="300" y="390" type="line"/>
      <point x="152" y="548" type="line"/>
      <point x="122" y="520" type="line"/>
      <point x="272" y="360" type="line"/>
      <point x="122" y="200" type="line"/>
    </contour>
  </outline>
</glyph>
<glyph name="Oslash" format="2">
  <advance width="808"/>
  <unicode hex="00D8"/>
  <outline>
    <contour>
      <point x="404" y="-11" type="curve" smooth="yes"/>
      <point x="602" y="-11"/>
      <point x="760" y="148"/>
      <point x="760" y="350" type="curve" smooth="yes"/>
      <point x="760" y="454"/>
      <point x="718" y="546"/>
      <point x="651" y="612" type="curve"/>
      <point x="724" y="700" type="line"/>
      <point x="665" y="700" type="line"/>
      <point x="616" y="641" type="line"/>
      <point x="557" y="685"/>
      <point x="484" y="711"/>
      <point x="404" y="711" type="curve" smooth="yes"/>
      <point x="206" y="711"/>
      <point x="48" y="552"/>
      <point x="48" y="350" type="curve" smooth="yes"/>
      <point x="48" y="246"/>
      <point x="90" y="154"/>
      <point x="157" y="88" type="curve"/>
      <point x="84" y="0" type="line"/>
      <point x="143" y="0" type="line"/>
      <point x="192" y="59" type="line"/>
      <point x="251" y="15"/>
      <point x="324" y="-11"/>
    </contour>
    <contour>
      <point x="186" y="122" type="line"/>
      <point x="129" y="180"/>
      <point x="95" y="260"/>
      <point x="95" y="350" type="curve" smooth="yes"/>
      <point x="95" y="529"/>
      <point x="230" y="668"/>
      <point x="404" y="668" type="curve" smooth="yes"/>
      <point x="474" y="668"/>
      <point x="537" y="646"/>
      <point x="588" y="607" type="curve"/>
    </contour>
    <contour>
      <point x="404" y="32" type="curve" smooth="yes"/>
      <point x="334" y="32"/>
      <point x="271" y="54"/>
      <point x="220" y="93" type="curve"/>
      <point x="622" y="578" type="line"/>
      <point x="679" y="520"/>
      <point x="713" y="440"/>
      <point x="713" y="350" type="curve" smooth="yes"/>
      <point x="713" y="171"/>
      <point x="578" y="32"/>
    </contour>
  </outline>
</glyph>
<glyph name="Thorn" format="2">
  <advance width="621"/>
  <unicode hex="00DE"/>
  <outline>
    <contour>
      <point x="83" y="0" type="line"/>
      <point x="129" y="0" type="line"/>
      <point x="129" y="164" type="line"/>
      <point x="356" y="164" type="line" smooth="yes"/>
      <point x="494" y="164"/>
      <point x="578" y="243"/>
      <point x="578" y="361" type="curve" smooth="yes"/>
      <point x="578" y="478"/>
      <point x="494" y="555"/>
      <point x="356" y="555" type="curve" smooth="yes"/>
      <point x="129" y="555" type="line"/>
      <point x="129" y="700" type="line"/>
      <point x="83" y="700" type="line"/>
    </contour>
    <contour>
      <point x="129" y="207" type="line"/>
      <point x="129" y="512" type="line"/>
      <point x="354" y="512" type="line" smooth="yes"/>
      <point x="468" y="512"/>
      <point x="531" y="452"/>
      <point x="531" y="361" type="curve" smooth="yes"/>
      <point x="531" y="268"/>
      <point x="468" y="207"/>
      <point x="354" y="207" type="curve" smooth="yes"/>
    </contour>
  </outline>
</glyph>
<glyph name="germandbls" format="2">
  <advance width="571"/>
  <unicode hex="00DF"/>
  <outline>
    <contour>
      <point x="387" y="-10" type="curve" smooth="yes"/>
      <point x="485" y="-10"/>
      <point x="551" y="44"/>
      <point x="551" y="126" type="curve" smooth="yes"/>
      <point x="551" y="194"/>
      <point x="513" y="241"/>
      <point x="438" y="267" type="curve" smooth="yes"/>
      <point x="360" y="294" type="line" smooth="yes"/>
      <point x="317" y="309"/>
      <point x="298" y="329"/>
      <point x="298" y="359" type="curve" smooth="yes"/>
      <point x="298" y="445"/>
      <point x="467" y="443"/>
      <point x="467" y="580" type="curve" smooth="yes"/>
      <point x="467" y="673"/>
      <point x="387" y="740"/>
      <point x="278" y="740" type="curve" smooth="yes"/>
      <point x="148" y="740"/>
      <point x="68" y="651"/>
      <point x="68" y="506" type="curve" smooth="yes"/>
      <point x="68" y="0" type="line"/>
      <point x="112" y="0" type="line"/>
      <point x="112" y="506" type="line" smooth="yes"/>
      <point x="112" y="627"/>
      <point x="173" y="696"/>
      <point x="278" y="696" type="curve" smooth="yes"/>
      <point x="364" y="696"/>
      <point x="423" y="647"/>
      <point x="423" y="580" type="curve" smooth="yes"/>
      <point x="423" y="468"/>
      <point x="254" y="476"/>
      <point x="254" y="359" type="curve" smooth="yes"/>
      <point x="254" y="310"/>
      <point x="284" y="275"/>
      <point x="347" y="253" type="curve" smooth="yes"/>
      <point x="425" y="226" type="line" smooth="yes"/>
      <point x="483" y="206"/>
      <point x="507" y="176"/>
      <point x="507" y="126" type="curve" smooth="yes"/>
      <point x="507" y="69"/>
      <point x="461" y="32"/>
      <point x="387" y="32" type="curve" smooth="yes"/>
      <point x="333" y="32"/>
      <point x="288" y="49"/>
      <point x="252" y="84" type="curve"/>
      <point x="223" y="54" type="line"/>
      <point x="266" y="12"/>
      <point x="323" y="-10"/>
    </contour>
  </outline>
</glyph>
<glyph name="ae" format="2">
  <advance width="898"/>
  <unicode hex="00E6"/>
  <guideline x="438" y="502" angle="0.0" color="0.999,0.001,0.001,0.999" identifier="pzR8s5Lxrq"/>
  <outline>
    <contour>
      <point x="221" y="-10" type="curve" smooth="yes"/>
      <point x="309" y="-10"/>
      <point x="382" y="30"/>
      <point x="432" y="99" type="curve"/>
      <point x="476" y="32"/>
      <point x="550" y="-10"/>
      <point x="634" y="-10" type="curve" smooth="yes"/>
      <point x="699" y="-10"/>
      <point x="759" y="8"/>
      <point x="813" y="47" type="curve"/>
      <point x="787" y="82" type="line"/>
      <point x="748" y="51"/>
      <point x="690" y="32"/>
      <point x="634" y="32" type="curve" smooth="yes"/>
      <point x="526" y="32"/>
      <point x="440" y="120"/>
      <point x="434" y="234" type="curve"/>
      <point x="853" y="234" type="line"/>
      <point x="853" y="252" type="line"/>
      <point x="853" y="389"/>
      <point x="757" y="502"/>
      <point x="630" y="502" type="curve" smooth="yes"/>
      <point x="543" y="502"/>
      <point x="469" y="457"/>
      <point x="427" y="387" type="curve"/>
      <point x="408" y="462"/>
      <point x="345" y="502"/>
      <point x="247" y="502" type="curve" smooth="yes"/>
      <point x="189" y="502"/>
      <point x="133" y="487"/>
      <point x="71" y="455" type="curve"/>
      <point x="90" y="416" type="line"/>
      <point x="154" y="449"/>
      <point x="200" y="463"/>
      <point x="246" y="463" type="curve" smooth="yes"/>
      <point x="338" y="463"/>
      <point x="389" y="418"/>
      <point x="389" y="328" type="curve" smooth="yes"/>
      <point x="389" y="247" type="line"/>
      <point x="345" y="274"/>
      <point x="291" y="289"/>
      <point x="233" y="289" type="curve" smooth="yes"/>
      <point x="115" y="289"/>
      <point x="39" y="229"/>
      <point x="39" y="138" type="curve" smooth="yes"/>
      <point x="39" y="50"/>
      <point x="113" y="-10"/>
    </contour>
    <contour>
      <point x="436" y="276" type="line"/>
      <point x="448" y="381"/>
      <point x="527" y="460"/>
      <point x="629" y="460" type="curve" smooth="yes"/>
      <point x="724" y="460"/>
      <point x="796" y="377"/>
      <point x="806" y="276" type="curve"/>
    </contour>
    <contour>
      <point x="224" y="29" type="curve" smooth="yes"/>
      <point x="142" y="29"/>
      <point x="83" y="75"/>
      <point x="83" y="139" type="curve" smooth="yes"/>
      <point x="83" y="206"/>
      <point x="141" y="251"/>
      <point x="228" y="251" type="curve" smooth="yes"/>
      <point x="297" y="251"/>
      <point x="348" y="234"/>
      <point x="393" y="198" type="curve"/>
      <point x="397" y="174"/>
      <point x="404" y="152"/>
      <point x="414" y="131" type="curve"/>
      <point x="366" y="67"/>
      <point x="307" y="29"/>
    </contour>
  </outline>
</glyph>
<glyph name="ccedilla" format="2">
  <advance width="504"/>
  <unicode hex="00E7"/>
  <outline>
    <contour>
      <point x="280" y="-224" type="curve" smooth="yes"/>
      <point x="343" y="-224"/>
      <point x="386" y="-189"/>
      <point x="386" y="-138" type="curve" smooth="yes"/>
      <point x="386" y="-92"/>
      <point x="348" y="-61"/>
      <point x="291" y="-60" type="curve"/>
      <point x="304" y="-10" type="line"/>
      <point x="367" y="-6"/>
      <point x="432" y="21"/>
      <point x="479" y="65" type="curve"/>
      <point x="449" y="101" type="line"/>
      <point x="406" y="59"/>
      <point x="348" y="32"/>
      <point x="290" y="32" type="curve" smooth="yes"/>
      <point x="178" y="32"/>
      <point x="90" y="126"/>
      <point x="90" y="246" type="curve" smooth="yes"/>
      <point x="90" y="366"/>
      <point x="178" y="460"/>
      <point x="290" y="460" type="curve" smooth="yes"/>
      <point x="348" y="460"/>
      <point x="406" y="433"/>
      <point x="449" y="391" type="curve"/>
      <point x="479" y="427" type="line"/>
      <point x="428" y="474"/>
      <point x="357" y="502"/>
      <point x="290" y="502" type="curve" smooth="yes"/>
      <point x="153" y="502"/>
      <point x="45" y="390"/>
      <point x="45" y="246" type="curve" smooth="yes"/>
      <point x="45" y="109"/>
      <point x="143" y="0"/>
      <point x="271" y="-9" type="curve"/>
      <point x="250" y="-89" type="line"/>
      <point x="273" y="-89" type="line" smooth="yes"/>
      <point x="321" y="-89"/>
      <point x="349" y="-108"/>
      <point x="349" y="-139" type="curve" smooth="yes"/>
      <point x="349" y="-172"/>
      <point x="322" y="-193"/>
      <point x="280" y="-193" type="curve" smooth="yes"/>
      <point x="250" y="-193"/>
      <point x="222" y="-182"/>
      <point x="195" y="-161" type="curve"/>
      <point x="172" y="-186" type="line"/>
      <point x="198" y="-210"/>
      <point x="238" y="-224"/>
    </contour>
  </outline>
</glyph>
<glyph name="eth" format="2">
  <advance width="588"/>
  <unicode hex="00F0"/>
  <outline>
    <contour>
      <point x="290" y="-10" type="curve" smooth="yes"/>
      <point x="438" y="-10"/>
      <point x="540" y="107"/>
      <point x="540" y="283" type="curve" smooth="yes"/>
      <point x="540" y="430"/>
      <point x="497" y="546"/>
      <point x="415" y="624" type="curve"/>
      <point x="519" y="688" type="line"/>
      <point x="497" y="722" type="line"/>
      <point x="382" y="651" type="line"/>
      <point x="342" y="681"/>
      <point x="294" y="703"/>
      <point x="238" y="717" type="curve"/>
      <point x="225" y="681" type="line"/>
      <point x="271" y="670"/>
      <point x="311" y="652"/>
      <point x="346" y="629" type="curve"/>
      <point x="249" y="569" type="line"/>
      <point x="270" y="535" type="line"/>
      <point x="379" y="602" type="line"/>
      <point x="441" y="546"/>
      <point x="480" y="467"/>
      <point x="494" y="372" type="curve"/>
      <point x="454" y="447"/>
      <point x="378" y="494"/>
      <point x="290" y="494" type="curve" smooth="yes"/>
      <point x="150" y="494"/>
      <point x="45" y="388"/>
      <point x="45" y="246" type="curve" smooth="yes"/>
      <point x="45" y="102"/>
      <point x="153" y="-10"/>
    </contour>
    <contour>
      <point x="291" y="32" type="curve" smooth="yes"/>
      <point x="178" y="32"/>
      <point x="90" y="123"/>
      <point x="90" y="242" type="curve" smooth="yes"/>
      <point x="90" y="361"/>
      <point x="178" y="452"/>
      <point x="291" y="452" type="curve" smooth="yes"/>
      <point x="404" y="452"/>
      <point x="492" y="361"/>
      <point x="492" y="242" type="curve" smooth="yes"/>
      <point x="492" y="123"/>
      <point x="404" y="32"/>
    </contour>
  </outline>
</glyph>
<glyph name="divide" format="2">
  <advance width="600"/>
  <unicode hex="00F7"/>
  <outline>
    <contour>
      <point x="300" y="492" type="curve" smooth="yes"/>
      <point x="322" y="492"/>
      <point x="338" y="509"/>
      <point x="338" y="530" type="curve" smooth="yes"/>
      <point x="338" y="551"/>
      <point x="322" y="568"/>
      <point x="300" y="568" type="curve" smooth="yes"/>
      <point x="278" y="568"/>
      <point x="262" y="551"/>
      <point x="262" y="530" type="curve" smooth="yes"/>
      <point x="262" y="509"/>
      <point x="278" y="492"/>
    </contour>
    <contour>
      <point x="300" y="147" type="curve" smooth="yes"/>
      <point x="322" y="147"/>
      <point x="338" y="164"/>
      <point x="338" y="185" type="curve" smooth="yes"/>
      <point x="338" y="206"/>
      <point x="322" y="223"/>
      <point x="300" y="223" type="curve" smooth="yes"/>
      <point x="278" y="223"/>
      <point x="262" y="206"/>
      <point x="262" y="185" type="curve" smooth="yes"/>
      <point x="262" y="164"/>
      <point x="278" y="147"/>
    </contour>
    <contour>
      <point x="111" y="337" type="line"/>
      <point x="488" y="337" type="line"/>
      <point x="488" y="378" type="line"/>
      <point x="111" y="378" type="line"/>
    </contour>
  </outline>
</glyph>
<glyph name="oslash" format="2">
  <advance width="580"/>
  <unicode hex="00F8"/>
  <outline>
    <contour>
      <point x="290" y="-10" type="curve" smooth="yes"/>
      <point x="427" y="-10"/>
      <point x="535" y="103"/>
      <point x="535" y="246" type="curve" smooth="yes"/>
      <point x="535" y="317"/>
      <point x="509" y="379"/>
      <point x="466" y="425" type="curve"/>
      <point x="522" y="492" type="line"/>
      <point x="467" y="492" type="line"/>
      <point x="435" y="454" type="line"/>
      <point x="395" y="484"/>
      <point x="345" y="502"/>
      <point x="290" y="502" type="curve" smooth="yes"/>
      <point x="153" y="502"/>
      <point x="45" y="390"/>
      <point x="45" y="246" type="curve" smooth="yes"/>
      <point x="45" y="176"/>
      <point x="71" y="113"/>
      <point x="114" y="67" type="curve"/>
      <point x="58" y="0" type="line"/>
      <point x="113" y="0" type="line"/>
      <point x="145" y="39" type="line"/>
      <point x="185" y="8"/>
      <point x="235" y="-10"/>
    </contour>
    <contour>
      <point x="142" y="101" type="line"/>
      <point x="110" y="139"/>
      <point x="90" y="189"/>
      <point x="90" y="246" type="curve" smooth="yes"/>
      <point x="90" y="366"/>
      <point x="178" y="460"/>
      <point x="290" y="460" type="curve" smooth="yes"/>
      <point x="334" y="460"/>
      <point x="375" y="445"/>
      <point x="407" y="420" type="curve"/>
    </contour>
    <contour>
      <point x="290" y="32" type="curve" smooth="yes"/>
      <point x="246" y="32"/>
      <point x="205" y="47"/>
      <point x="173" y="72" type="curve"/>
      <point x="438" y="391" type="line"/>
      <point x="470" y="353"/>
      <point x="490" y="303"/>
      <point x="490" y="246" type="curve" smooth="yes"/>
      <point x="490" y="126"/>
      <point x="402" y="32"/>
    </contour>
  </outline>
</glyph>
<glyph name="thorn" format="2">
  <advance width="571"/>
  <unicode hex="00FE"/>
  <outline>
    <contour>
      <point x="68" y="-204" type="line"/>
      <point x="112" y="-204" type="line"/>
      <point x="112" y="58" type="line"/>
      <point x="158" y="17"/>
      <point x="218" y="-10"/>
      <point x="281" y="-10" type="curve" smooth="yes"/>
      <point x="418" y="-10"/>
      <point x="526" y="103"/>
      <point x="526" y="246" type="curve" smooth="yes"/>
      <point x="526" y="390"/>
      <point x="418" y="503"/>
      <point x="281" y="502" type="curve" smooth="yes"/>
      <point x="215" y="502"/>
      <point x="156" y="478"/>
      <point x="112" y="433" type="curve"/>
      <point x="112" y="711" type="line"/>
      <point x="68" y="700" type="line"/>
    </contour>
    <contour>
      <point x="281" y="460" type="curve" smooth="yes"/>
      <point x="393" y="460"/>
      <point x="481" y="366"/>
      <point x="481" y="246" type="curve" smooth="yes"/>
      <point x="481" y="126"/>
      <point x="393" y="32"/>
      <point x="281" y="32" type="curve" smooth="yes"/>
      <point x="210" y="32"/>
      <point x="147" y="67"/>
      <point x="112" y="114" type="curve"/>
      <point x="112" y="378" type="line"/>
      <point x="145" y="427"/>
      <point x="208" y="460"/>
    </contour>
  </outline>
</glyph>
<glyph name="Aogonek" format="2">
  <advance width="655"/>
  <unicode hex="0104"/>
  <outline>
    <contour>
      <point x="593" y="-221" type="curve" smooth="yes"/>
      <point x="619" y="-221"/>
      <point x="642" y="-214"/>
      <point x="662" y="-201" type="curve"/>
      <point x="649" y="-172" type="line"/>
      <point x="634" y="-182"/>
      <point x="616" y="-187"/>
      <point x="598" y="-187" type="curve" smooth="yes"/>
      <point x="560" y="-187"/>
      <point x="536" y="-168"/>
      <point x="536" y="-131" type="curve" smooth="yes"/>
      <point x="536" y="-94"/>
      <point x="563" y="-55"/>
      <point x="648" y="0" type="curve"/>
      <point x="357" y="700" type="line"/>
      <point x="300" y="700" type="line"/>
      <point x="8" y="0" type="line"/>
      <point x="56" y="0" type="line"/>
      <point x="154" y="237" type="line"/>
      <point x="501" y="237" type="line"/>
      <point x="598" y="0" type="line"/>
      <point x="599" y="0" type="line"/>
      <point x="524" y="-54"/>
      <point x="497" y="-94"/>
      <point x="497" y="-138" type="curve" smooth="yes"/>
      <point x="497" y="-185"/>
      <point x="531" y="-221"/>
    </contour>
    <contour>
      <point x="171" y="278" type="line"/>
      <point x="328" y="657" type="line"/>
      <point x="484" y="278" type="line"/>
    </contour>
  </outline>
</glyph>
<glyph name="Dcroat" format="2">
  <advance width="713"/>
  <unicode hex="0110"/>
  <outline>
    <contour>
      <point x="83" y="0" type="line"/>
      <point x="297" y="0" type="line" smooth="yes"/>
      <point x="518" y="0"/>
      <point x="665" y="150"/>
      <point x="665" y="350" type="curve" smooth="yes"/>
      <point x="665" y="550"/>
      <point x="518" y="700"/>
      <point x="297" y="700" type="curve" smooth="yes"/>
      <point x="83" y="700" type="line"/>
      <point x="83" y="375" type="line"/>
      <point x="13" y="375" type="line"/>
      <point x="13" y="334" type="line"/>
      <point x="83" y="334" type="line"/>
    </contour>
    <contour>
      <point x="129" y="43" type="line"/>
      <point x="129" y="334" type="line"/>
      <point x="348" y="334" type="line"/>
      <point x="348" y="375" type="line"/>
      <point x="129" y="375" type="line"/>
      <point x="129" y="657" type="line"/>
      <point x="303" y="657" type="line" smooth="yes"/>
      <point x="482" y="657"/>
      <point x="618" y="525"/>
      <point x="618" y="350" type="curve" smooth="yes"/>
      <point x="618" y="175"/>
      <point x="482" y="43"/>
      <point x="303" y="43" type="curve" smooth="yes"/>
    </contour>
  </outline>
</glyph>
<glyph name="dcroat" format="2">
  <advance width="571"/>
  <unicode hex="0111"/>
  <outline>
    <contour>
      <point x="290" y="-10" type="curve" smooth="yes"/>
      <point x="356" y="-10"/>
      <point x="415" y="14"/>
      <point x="459" y="59" type="curve"/>
      <point x="459" y="0" type="line"/>
      <point x="503" y="0" type="line"/>
      <point x="503" y="590" type="line"/>
      <point x="569" y="590" type="line"/>
      <point x="569" y="627" type="line"/>
      <point x="503" y="627" type="line"/>
      <point x="503" y="711" type="line"/>
      <point x="459" y="700" type="line"/>
      <point x="459" y="627" type="line"/>
      <point x="283" y="627" type="line"/>
      <point x="283" y="590" type="line"/>
      <point x="459" y="590" type="line"/>
      <point x="459" y="434" type="line"/>
      <point x="413" y="475"/>
      <point x="353" y="502"/>
      <point x="290" y="502" type="curve" smooth="yes"/>
      <point x="153" y="502"/>
      <point x="45" y="389"/>
      <point x="45" y="246" type="curve" smooth="yes"/>
      <point x="45" y="102"/>
      <point x="153" y="-11"/>
    </contour>
    <contour>
      <point x="290" y="32" type="curve" smooth="yes"/>
      <point x="178" y="32"/>
      <point x="90" y="126"/>
      <point x="90" y="246" type="curve" smooth="yes"/>
      <point x="90" y="366"/>
      <point x="178" y="460"/>
      <point x="290" y="460" type="curve" smooth="yes"/>
      <point x="361" y="460"/>
      <point x="424" y="425"/>
      <point x="459" y="378" type="curve"/>
      <point x="459" y="114" type="line"/>
      <point x="426" y="65"/>
      <point x="363" y="32"/>
    </contour>
  </outline>
</glyph>
<glyph name="Eogonek" format="2">
  <advance width="602"/>
  <unicode hex="0118"/>
  <outline>
    <contour>
      <point x="585" y="-201" type="curve"/>
      <point x="572" y="-172" type="line"/>
      <point x="557" y="-182"/>
      <point x="539" y="-187"/>
      <point x="521" y="-187" type="curve" smooth="yes"/>
      <point x="483" y="-187"/>
      <point x="459" y="-168"/>
      <point x="459" y="-131" type="curve" smooth="yes"/>
      <point x="459" y="-94"/>
      <point x="486" y="-55"/>
      <point x="571" y="0" type="curve"/>
      <point x="571" y="43" type="line"/>
      <point x="129" y="43" type="line"/>
      <point x="129" y="332" type="line"/>
      <point x="415" y="332" type="line"/>
      <point x="415" y="375" type="line"/>
      <point x="129" y="375" type="line"/>
      <point x="129" y="657" type="line"/>
      <point x="567" y="657" type="line"/>
      <point x="567" y="700" type="line"/>
      <point x="83" y="700" type="line"/>
      <point x="83" y="0" type="line"/>
      <point x="522" y="0" type="line"/>
      <point x="447" y="-54"/>
      <point x="420" y="-94"/>
      <point x="420" y="-138" type="curve" smooth="yes"/>
      <point x="420" y="-185"/>
      <point x="454" y="-221"/>
      <point x="516" y="-221" type="curve" smooth="yes"/>
      <point x="542" y="-221"/>
      <point x="565" y="-214"/>
    </contour>
  </outline>
</glyph>
<glyph name="eogonek" format="2">
  <advance width="549"/>
  <unicode hex="0119"/>
  <outline>
    <contour>
      <point x="310" y="-221" type="curve" smooth="yes"/>
      <point x="336" y="-221"/>
      <point x="359" y="-214"/>
      <point x="379" y="-201" type="curve"/>
      <point x="366" y="-172" type="line"/>
      <point x="351" y="-182"/>
      <point x="333" y="-187"/>
      <point x="315" y="-187" type="curve" smooth="yes"/>
      <point x="277" y="-187"/>
      <point x="253" y="-168"/>
      <point x="253" y="-131" type="curve" smooth="yes"/>
      <point x="253" y="-94"/>
      <point x="279" y="-56"/>
      <point x="362" y="-2" type="curve"/>
      <point x="400" y="7"/>
      <point x="436" y="23"/>
      <point x="469" y="47" type="curve"/>
      <point x="443" y="82" type="line"/>
      <point x="404" y="51"/>
      <point x="346" y="32"/>
      <point x="290" y="32" type="curve" smooth="yes"/>
      <point x="182" y="32"/>
      <point x="96" y="120"/>
      <point x="90" y="234" type="curve"/>
      <point x="509" y="234" type="line"/>
      <point x="509" y="252" type="line" smooth="yes"/>
      <point x="509" y="389"/>
      <point x="413" y="502"/>
      <point x="286" y="502" type="curve" smooth="yes"/>
      <point x="149" y="502"/>
      <point x="45" y="390"/>
      <point x="45" y="246" type="curve" smooth="yes"/>
      <point x="45" y="98"/>
      <point x="158" y="-15"/>
      <point x="302" y="-10" type="curve"/>
      <point x="238" y="-59"/>
      <point x="214" y="-97"/>
      <point x="214" y="-138" type="curve" smooth="yes"/>
      <point x="214" y="-185"/>
      <point x="248" y="-221"/>
    </contour>
    <contour>
      <point x="92" y="276" type="line"/>
      <point x="104" y="381"/>
      <point x="183" y="460"/>
      <point x="285" y="460" type="curve" smooth="yes"/>
      <point x="380" y="460"/>
      <point x="452" y="378"/>
      <point x="462" y="276" type="curve"/>
    </contour>
  </outline>
</glyph>
<glyph name="Hbar" format="2">
  <advance width="704"/>
  <unicode hex="0126"/>
  <outline>
    <contour>
      <point x="83" y="0" type="line"/>
      <point x="129" y="0" type="line"/>
      <point x="129" y="331" type="line"/>
      <point x="575" y="331" type="line"/>
      <point x="575" y="0" type="line"/>
      <point x="621" y="0" type="line"/>
      <point x="621" y="529" type="line"/>
      <point x="691" y="529" type="line"/>
      <point x="691" y="570" type="line"/>
      <point x="621" y="570" type="line"/>
      <point x="621" y="700" type="line"/>
      <point x="575" y="700" type="line"/>
      <point x="575" y="570" type="line"/>
      <point x="129" y="570" type="line"/>
      <point x="129" y="700" type="line"/>
      <point x="83" y="700" type="line"/>
      <point x="83" y="570" type="line"/>
      <point x="13" y="570" type="line"/>
      <point x="13" y="529" type="line"/>
      <point x="83" y="529" type="line"/>
    </contour>
    <contour>
      <point x="129" y="374" type="line"/>
      <point x="129" y="529" type="line"/>
      <point x="575" y="529" type="line"/>
      <point x="575" y="374" type="line"/>
    </contour>
  </outline>
</glyph>
<glyph name="Iogonek" format="2">
  <advance width="212"/>
  <unicode hex="012E"/>
  <outline>
    <contour>
      <point x="74" y="-221" type="curve" smooth="yes"/>
      <point x="100" y="-221"/>
      <point x="123" y="-214"/>
      <point x="143" y="-201" type="curve"/>
      <point x="130" y="-172" type="line"/>
      <point x="115" y="-182"/>
      <point x="97" y="-187"/>
      <point x="79" y="-187" type="curve" smooth="yes"/>
      <point x="41" y="-187"/>
      <point x="17" y="-168"/>
      <point x="17" y="-131" type="curve" smooth="yes"/>
      <point x="17" y="-94"/>
      <point x="44" y="-55"/>
      <point x="129" y="0" type="curve"/>
      <point x="129" y="700" type="line"/>
      <point x="83" y="700" type="line"/>
      <point x="83" y="0" type="line"/>
      <point x="84" y="0" type="line"/>
      <point x="8" y="-48"/>
      <point x="-22" y="-94"/>
      <point x="-22" y="-138" type="curve" smooth="yes"/>
      <point x="-22" y="-185"/>
      <point x="12" y="-221"/>
    </contour>
  </outline>
</glyph>
<glyph name="dotlessi" format="2">
  <advance width="180"/>
  <unicode hex="0131"/>
  <anchor x="86" y="492" name="top"/>
  <anchor x="112" y="0" name="bottom"/>
  <outline>
    <contour>
      <point x="68" y="0" type="line"/>
      <point x="112" y="0" type="line"/>
      <point x="112" y="492" type="line"/>
      <point x="68" y="492" type="line"/>
    </contour>
  </outline>
</glyph>
<glyph name="lacute" format="2">
  <advance width="180"/>
  <unicode hex="013A"/>
  <outline>
    <contour>
      <point x="68" y="0" type="line"/>
      <point x="112" y="0" type="line"/>
      <point x="112" y="705" type="line"/>
      <point x="68" y="705" type="line"/>
    </contour>
    <contour>
      <point x="55" y="804" type="line"/>
      <point x="99" y="804" type="line"/>
      <point x="218" y="914" type="line"/>
      <point x="151" y="914" type="line"/>
    </contour>
  </outline>
</glyph>
<glyph name="Lslash" format="2">
  <advance width="597"/>
  <unicode hex="0141"/>
  <outline>
    <contour>
      <point x="92" y="0" type="line"/>
      <point x="570" y="0" type="line"/>
      <point x="570" y="43" type="line"/>
      <point x="138" y="43" type="line"/>
      <point x="138" y="281" type="line"/>
      <point x="348" y="454" type="line"/>
      <point x="348" y="505" type="line"/>
      <point x="138" y="333" type="line"/>
      <point x="138" y="700" type="line"/>
      <point x="92" y="700" type="line"/>
      <point x="92" y="295" type="line"/>
      <point x="11" y="229" type="line"/>
      <point x="11" y="177" type="line"/>
      <point x="92" y="244" type="line"/>
    </contour>
  </outline>
</glyph>
<glyph name="lslash" format="2">
  <advance width="218"/>
  <unicode hex="0142"/>
  <outline>
    <contour>
      <point x="88" y="0" type="line"/>
      <point x="132" y="0" type="line"/>
      <point x="132" y="382" type="line"/>
      <point x="209" y="449" type="line"/>
      <point x="209" y="500" type="line"/>
      <point x="132" y="433" type="line"/>
      <point x="132" y="711" type="line"/>
      <point x="88" y="700" type="line"/>
      <point x="88" y="395" type="line"/>
      <point x="9" y="326" type="line"/>
      <point x="9" y="274" type="line"/>
      <point x="88" y="343" type="line"/>
    </contour>
  </outline>
</glyph>
<glyph name="eng" format="2">
  <advance width="529"/>
  <unicode hex="014B"/>
  <outline>
    <contour>
      <point x="354" y="-214" type="curve" smooth="yes"/>
      <point x="426" y="-214"/>
      <point x="463" y="-173"/>
      <point x="463" y="-103" type="curve" smooth="yes"/>
      <point x="463" y="314" type="line" smooth="yes"/>
      <point x="463" y="426"/>
      <point x="387" y="502"/>
      <point x="275" y="502" type="curve" smooth="yes"/>
      <point x="207" y="502"/>
      <point x="152" y="476"/>
      <point x="112" y="423" type="curve"/>
      <point x="112" y="492" type="line"/>
      <point x="68" y="492" type="line"/>
      <point x="68" y="0" type="line"/>
      <point x="112" y="0" type="line"/>
      <point x="112" y="370" type="line"/>
      <point x="143" y="428"/>
      <point x="198" y="461"/>
      <point x="265" y="461" type="curve" smooth="yes"/>
      <point x="361" y="461"/>
      <point x="419" y="400"/>
      <point x="419" y="302" type="curve" smooth="yes"/>
      <point x="419" y="-97" type="line" smooth="yes"/>
      <point x="419" y="-150"/>
      <point x="400" y="-171"/>
      <point x="353" y="-171" type="curve" smooth="yes"/>
      <point x="339" y="-171"/>
      <point x="330" y="-170"/>
      <point x="318" y="-167" type="curve"/>
      <point x="318" y="-211" type="line"/>
      <point x="331" y="-212"/>
      <point x="340" y="-214"/>
    </contour>
  </outline>
</glyph>
<glyph name="OE" format="2">
  <advance width="1078"/>
  <unicode hex="0152"/>
  <outline>
    <contour>
      <point x="393" y="0" type="curve" smooth="yes"/>
      <point x="1047" y="0" type="line"/>
      <point x="1047" y="43" type="line"/>
      <point x="551" y="43" type="line"/>
      <point x="656" y="98"/>
      <point x="731" y="203"/>
      <point x="738" y="332" type="curve"/>
      <point x="917" y="332" type="line"/>
      <point x="917" y="375" type="line"/>
      <point x="737" y="375" type="line"/>
      <point x="729" y="500"/>
      <point x="657" y="603"/>
      <point x="554" y="657" type="curve"/>
      <point x="1043" y="657" type="line"/>
      <point x="1043" y="700" type="line"/>
      <point x="393" y="700" type="line" smooth="yes"/>
      <point x="201" y="700"/>
      <point x="48" y="546"/>
      <point x="48" y="350" type="curve" smooth="yes"/>
      <point x="48" y="154"/>
      <point x="201" y="0"/>
    </contour>
    <contour>
      <point x="393" y="43" type="curve" smooth="yes"/>
      <point x="225" y="43"/>
      <point x="95" y="177"/>
      <point x="95" y="350" type="curve" smooth="yes"/>
      <point x="95" y="523"/>
      <point x="225" y="657"/>
      <point x="393" y="657" type="curve" smooth="yes"/>
      <point x="561" y="657"/>
      <point x="691" y="523"/>
      <point x="691" y="350" type="curve" smooth="yes"/>
      <point x="691" y="177"/>
      <point x="561" y="43"/>
    </contour>
  </outline>
</glyph>
<glyph name="oe" format="2">
  <advance width="1000"/>
  <unicode hex="0153"/>
  <outline>
    <contour>
      <point x="290" y="-10" type="curve" smooth="yes"/>
      <point x="390" y="-10"/>
      <point x="475" y="52"/>
      <point x="512" y="142" type="curve"/>
      <point x="550" y="51"/>
      <point x="635" y="-10"/>
      <point x="736" y="-10" type="curve" smooth="yes"/>
      <point x="801" y="-10"/>
      <point x="861" y="8"/>
      <point x="915" y="47" type="curve"/>
      <point x="889" y="82" type="line"/>
      <point x="850" y="51"/>
      <point x="792" y="32"/>
      <point x="736" y="32" type="curve" smooth="yes"/>
      <point x="628" y="32"/>
      <point x="542" y="120"/>
      <point x="536" y="234" type="curve"/>
      <point x="955" y="234" type="line"/>
      <point x="955" y="252" type="line"/>
      <point x="955" y="389"/>
      <point x="859" y="502"/>
      <point x="732" y="502" type="curve" smooth="yes"/>
      <point x="632" y="502"/>
      <point x="549" y="441"/>
      <point x="512" y="351" type="curve"/>
      <point x="475" y="441"/>
      <point x="390" y="502"/>
      <point x="290" y="502" type="curve" smooth="yes"/>
      <point x="153" y="502"/>
      <point x="45" y="390"/>
      <point x="45" y="246" type="curve" smooth="yes"/>
      <point x="45" y="103"/>
      <point x="153" y="-10"/>
    </contour>
    <contour>
      <point x="290" y="32" type="curve" smooth="yes"/>
      <point x="178" y="32"/>
      <point x="90" y="126"/>
      <point x="90" y="246" type="curve" smooth="yes"/>
      <point x="90" y="366"/>
      <point x="178" y="460"/>
      <point x="290" y="460" type="curve" smooth="yes"/>
      <point x="402" y="460"/>
      <point x="490" y="366"/>
      <point x="490" y="246" type="curve" smooth="yes"/>
      <point x="490" y="126"/>
      <point x="402" y="32"/>
    </contour>
    <contour>
      <point x="538" y="276" type="line"/>
      <point x="550" y="381"/>
      <point x="629" y="460"/>
      <point x="731" y="460" type="curve" smooth="yes"/>
      <point x="826" y="460"/>
      <point x="898" y="377"/>
      <point x="908" y="276" type="curve"/>
    </contour>
  </outline>
</glyph>
<glyph name="Scedilla" format="2">
  <advance width="586"/>
  <unicode hex="015E"/>
  <outline>
    <contour>
      <point x="287" y="-222" type="curve" smooth="yes"/>
      <point x="350" y="-222"/>
      <point x="393" y="-187"/>
      <point x="393" y="-136" type="curve" smooth="yes"/>
      <point x="393" y="-90"/>
      <point x="355" y="-59"/>
      <point x="298" y="-58" type="curve"/>
      <point x="311" y="-11" type="line"/>
      <point x="453" y="-7"/>
      <point x="555" y="76"/>
      <point x="555" y="190" type="curve" smooth="yes"/>
      <point x="555" y="300"/>
      <point x="491" y="355"/>
      <point x="332" y="381" type="curve" smooth="yes"/>
      <point x="247" y="395" type="line" smooth="yes"/>
      <point x="131" y="414"/>
      <point x="86" y="451"/>
      <point x="86" y="525" type="curve" smooth="yes"/>
      <point x="86" y="609"/>
      <point x="163" y="668"/>
      <point x="272" y="668" type="curve" smooth="yes"/>
      <point x="353" y="668"/>
      <point x="435" y="638"/>
      <point x="513" y="580" type="curve"/>
      <point x="541" y="618" type="line"/>
      <point x="458" y="679"/>
      <point x="364" y="711"/>
      <point x="272" y="711" type="curve" smooth="yes"/>
      <point x="135" y="711"/>
      <point x="39" y="634"/>
      <point x="39" y="523" type="curve" smooth="yes"/>
      <point x="39" y="426"/>
      <point x="102" y="372"/>
      <point x="242" y="349" type="curve" smooth="yes"/>
      <point x="327" y="335" type="line" smooth="yes"/>
      <point x="457" y="314"/>
      <point x="508" y="274"/>
      <point x="508" y="193" type="curve" smooth="yes"/>
      <point x="508" y="100"/>
      <point x="420" y="32"/>
      <point x="300" y="32" type="curve" smooth="yes"/>
      <point x="204" y="32"/>
      <point x="117" y="74"/>
      <point x="51" y="153" type="curve"/>
      <point x="15" y="123" type="line"/>
      <point x="83" y="42"/>
      <point x="175" y="-5"/>
      <point x="278" y="-10" type="curve"/>
      <point x="257" y="-87" type="line"/>
      <point x="280" y="-87" type="line" smooth="yes"/>
      <point x="328" y="-87"/>
      <point x="356" y="-106"/>
      <point x="356" y="-137" type="curve" smooth="yes"/>
      <point x="356" y="-170"/>
      <point x="329" y="-191"/>
      <point x="287" y="-191" type="curve" smooth="yes"/>
      <point x="257" y="-191"/>
      <point x="229" y="-180"/>
      <point x="202" y="-159" type="curve"/>
      <point x="179" y="-184" type="line"/>
      <point x="205" y="-208"/>
      <point x="245" y="-222"/>
    </contour>
  </outline>
</glyph>
<glyph name="scedilla" format="2">
  <advance width="423"/>
  <unicode hex="015F"/>
  <outline>
    <contour>
      <point x="202" y="-224" type="curve" smooth="yes"/>
      <point x="265" y="-224"/>
      <point x="308" y="-189"/>
      <point x="308" y="-138" type="curve" smooth="yes"/>
      <point x="308" y="-92"/>
      <point x="270" y="-61"/>
      <point x="213" y="-60" type="curve"/>
      <point x="226" y="-9" type="line"/>
      <point x="331" y="-3"/>
      <point x="403" y="58"/>
      <point x="403" y="136" type="curve" smooth="yes"/>
      <point x="403" y="207"/>
      <point x="356" y="255"/>
      <point x="257" y="267" type="curve" smooth="yes"/>
      <point x="177" y="277" type="line" smooth="yes"/>
      <point x="104" y="286"/>
      <point x="73" y="316"/>
      <point x="73" y="364" type="curve" smooth="yes"/>
      <point x="73" y="427"/>
      <point x="128" y="460"/>
      <point x="205" y="460" type="curve" smooth="yes"/>
      <point x="262" y="460"/>
      <point x="311" y="442"/>
      <point x="367" y="402" type="curve"/>
      <point x="393" y="438" type="line"/>
      <point x="330" y="483"/>
      <point x="271" y="502"/>
      <point x="204" y="502" type="curve" smooth="yes"/>
      <point x="99" y="502"/>
      <point x="29" y="446"/>
      <point x="29" y="365" type="curve" smooth="yes"/>
      <point x="29" y="291"/>
      <point x="79" y="246"/>
      <point x="172" y="235" type="curve" smooth="yes"/>
      <point x="253" y="225" type="line" smooth="yes"/>
      <point x="327" y="216"/>
      <point x="359" y="183"/>
      <point x="359" y="137" type="curve" smooth="yes"/>
      <point x="359" y="75"/>
      <point x="299" y="32"/>
      <point x="208" y="32" type="curve" smooth="yes"/>
      <point x="146" y="32"/>
      <point x="87" y="56"/>
      <point x="47" y="98" type="curve"/>
      <point x="13" y="70" type="line"/>
      <point x="57" y="21"/>
      <point x="123" y="-6"/>
      <point x="193" y="-10" type="curve"/>
      <point x="172" y="-89" type="line"/>
      <point x="195" y="-89" type="line" smooth="yes"/>
      <point x="243" y="-89"/>
      <point x="271" y="-108"/>
      <point x="271" y="-139" type="curve" smooth="yes"/>
      <point x="271" y="-172"/>
      <point x="244" y="-193"/>
      <point x="202" y="-193" type="curve" smooth="yes"/>
      <point x="172" y="-193"/>
      <point x="144" y="-182"/>
      <point x="117" y="-161" type="curve"/>
      <point x="94" y="-186" type="line"/>
      <point x="120" y="-210"/>
      <point x="160" y="-224"/>
    </contour>
  </outline>
</glyph>
<glyph name="Tcedilla" format="2">
  <advance width="600"/>
  <unicode hex="0162"/>
  <outline>
    <contour>
      <point x="289" y="-224" type="curve" smooth="yes"/>
      <point x="352" y="-224"/>
      <point x="395" y="-189"/>
      <point x="395" y="-138" type="curve" smooth="yes"/>
      <point x="395" y="-92"/>
      <point x="357" y="-61"/>
      <point x="300" y="-60" type="curve"/>
      <point x="316" y="0" type="line"/>
      <point x="323" y="0" type="line"/>
      <point x="323" y="657" type="line"/>
      <point x="583" y="657" type="line"/>
      <point x="583" y="700" type="line"/>
      <point x="17" y="700" type="line"/>
      <point x="17" y="657" type="line"/>
      <point x="277" y="657" type="line"/>
      <point x="277" y="0" type="line"/>
      <point x="283" y="0" type="line"/>
      <point x="259" y="-89" type="line"/>
      <point x="282" y="-89" type="line" smooth="yes"/>
      <point x="330" y="-89"/>
      <point x="358" y="-108"/>
      <point x="358" y="-139" type="curve" smooth="yes"/>
      <point x="358" y="-172"/>
      <point x="331" y="-193"/>
      <point x="289" y="-193" type="curve" smooth="yes"/>
      <point x="259" y="-193"/>
      <point x="231" y="-182"/>
      <point x="204" y="-161" type="curve"/>
      <point x="181" y="-186" type="line"/>
      <point x="207" y="-210"/>
      <point x="247" y="-224"/>
    </contour>
  </outline>
</glyph>
<glyph name="tbar" format="2">
  <advance width="338"/>
  <unicode hex="0167"/>
  <outline>
    <contour>
      <point x="241" y="-10" type="curve" smooth="yes"/>
      <point x="269" y="-10"/>
      <point x="295" y="-6"/>
      <point x="321" y="3" type="curve"/>
      <point x="321" y="46" type="line"/>
      <point x="298" y="36"/>
      <point x="279" y="32"/>
      <point x="249" y="32" type="curve" smooth="yes"/>
      <point x="192" y="32"/>
      <point x="169" y="55"/>
      <point x="169" y="111" type="curve" smooth="yes"/>
      <point x="169" y="269" type="line"/>
      <point x="321" y="269" type="line"/>
      <point x="321" y="306" type="line"/>
      <point x="169" y="306" type="line"/>
      <point x="169" y="452" type="line"/>
      <point x="321" y="452" type="line"/>
      <point x="321" y="492" type="line"/>
      <point x="169" y="492" type="line"/>
      <point x="169" y="630" type="line"/>
      <point x="125" y="616" type="line"/>
      <point x="125" y="492" type="line"/>
      <point x="17" y="492" type="line"/>
      <point x="17" y="452" type="line"/>
      <point x="125" y="452" type="line"/>
      <point x="125" y="306" type="line"/>
      <point x="17" y="306" type="line"/>
      <point x="17" y="269" type="line"/>
      <point x="125" y="269" type="line"/>
      <point x="125" y="96" type="line" smooth="yes"/>
      <point x="125" y="29"/>
      <point x="166" y="-10"/>
    </contour>
  </outline>
</glyph>
<glyph name="Uogonek" format="2">
  <advance width="694"/>
  <unicode hex="0172"/>
  <outline>
    <contour>
      <point x="372" y="-221" type="curve" smooth="yes"/>
      <point x="398" y="-221"/>
      <point x="421" y="-214"/>
      <point x="441" y="-201" type="curve"/>
      <point x="428" y="-172" type="line"/>
      <point x="413" y="-182"/>
      <point x="395" y="-187"/>
      <point x="377" y="-187" type="curve" smooth="yes"/>
      <point x="339" y="-187"/>
      <point x="315" y="-168"/>
      <point x="315" y="-131" type="curve" smooth="yes"/>
      <point x="315" y="-95"/>
      <point x="341" y="-56"/>
      <point x="423" y="-2" type="curve"/>
      <point x="547" y="27"/>
      <point x="626" y="130"/>
      <point x="626" y="293" type="curve" smooth="yes"/>
      <point x="626" y="700" type="line"/>
      <point x="580" y="700" type="line"/>
      <point x="580" y="293" type="line" smooth="yes"/>
      <point x="580" y="126"/>
      <point x="483" y="32"/>
      <point x="347" y="32" type="curve" smooth="yes"/>
      <point x="211" y="32"/>
      <point x="114" y="126"/>
      <point x="114" y="293" type="curve" smooth="yes"/>
      <point x="114" y="700" type="line"/>
      <point x="68" y="700" type="line"/>
      <point x="68" y="293" type="line" smooth="yes"/>
      <point x="68" y="92"/>
      <point x="189" y="-18"/>
      <point x="364" y="-11" type="curve"/>
      <point x="299" y="-59"/>
      <point x="276" y="-97"/>
      <point x="276" y="-138" type="curve" smooth="yes"/>
      <point x="276" y="-185"/>
      <point x="310" y="-221"/>
    </contour>
  </outline>
</glyph>
<glyph name="uogonek" format="2">
  <advance width="529"/>
  <unicode hex="0173"/>
  <outline>
    <contour>
      <point x="406" y="-221" type="curve" smooth="yes"/>
      <point x="432" y="-221"/>
      <point x="455" y="-214"/>
      <point x="475" y="-201" type="curve"/>
      <point x="462" y="-172" type="line"/>
      <point x="447" y="-182"/>
      <point x="429" y="-187"/>
      <point x="411" y="-187" type="curve" smooth="yes"/>
      <point x="373" y="-187"/>
      <point x="349" y="-168"/>
      <point x="349" y="-131" type="curve" smooth="yes"/>
      <point x="349" y="-94"/>
      <point x="376" y="-55"/>
      <point x="461" y="0" type="curve"/>
      <point x="461" y="492" type="line"/>
      <point x="417" y="492" type="line"/>
      <point x="417" y="122" type="line"/>
      <point x="386" y="64"/>
      <point x="331" y="31"/>
      <point x="264" y="31" type="curve" smooth="yes"/>
      <point x="168" y="31"/>
      <point x="110" y="92"/>
      <point x="110" y="190" type="curve" smooth="yes"/>
      <point x="110" y="492" type="line"/>
      <point x="66" y="492" type="line"/>
      <point x="66" y="178" type="line" smooth="yes"/>
      <point x="66" y="66"/>
      <point x="143" y="-10"/>
      <point x="254" y="-10" type="curve" smooth="yes"/>
      <point x="323" y="-10"/>
      <point x="378" y="16"/>
      <point x="417" y="68" type="curve"/>
      <point x="417" y="0" type="line"/>
      <point x="418" y="0" type="line"/>
      <point x="342" y="-48"/>
      <point x="310" y="-94"/>
      <point x="310" y="-138" type="curve" smooth="yes"/>
      <point x="310" y="-185"/>
      <point x="344" y="-221"/>
    </contour>
  </outline>
</glyph>
<glyph name="dotlessj" format="2">
  <advance width="180"/>
  <unicode hex="0237"/>
  <anchor x="90" y="492" name="top"/>
  <outline>
    <contour>
      <point x="3" y="-214" type="curve" smooth="yes"/>
      <point x="75" y="-214"/>
      <point x="112" y="-173"/>
      <point x="112" y="-103" type="curve" smooth="yes"/>
      <point x="112" y="492" type="line"/>
      <point x="68" y="492" type="line"/>
      <point x="68" y="-97" type="line" smooth="yes"/>
      <point x="68" y="-150"/>
      <point x="49" y="-171"/>
      <point x="2" y="-171" type="curve" smooth="yes"/>
      <point x="-12" y="-171"/>
      <point x="-21" y="-170"/>
      <point x="-33" y="-167" type="curve"/>
      <point x="-33" y="-211" type="line"/>
      <point x="-20" y="-212"/>
      <point x="-11" y="-214"/>
    </contour>
  </outline>
</glyph>
<glyph name="caron" format="2">
  <advance width="600"/>
  <unicode hex="02C7"/>
  <outline>
    <contour>
      <point x="214" y="708" type="line"/>
      <point x="175" y="708" type="line"/>
      <point x="274" y="594" type="line"/>
      <point x="326" y="594" type="line"/>
      <point x="425" y="708" type="line"/>
      <point x="386" y="708" type="line"/>
      <point x="300" y="625" type="line"/>
    </contour>
  </outline>
</glyph>
<glyph name="breve" format="2">
  <advance width="600"/>
  <unicode hex="02D8"/>
  <outline>
    <contour>
      <point x="300" y="588" type="curve"/>
      <point x="376" y="588"/>
      <point x="429" y="634"/>
      <point x="444" y="706" type="curve"/>
      <point x="407" y="714" type="line"/>
      <point x="393" y="657"/>
      <point x="355" y="624"/>
      <point x="300" y="624" type="curve"/>
      <point x="244" y="624"/>
      <point x="207" y="656"/>
      <point x="193" y="714" type="curve"/>
      <point x="156" y="706" type="line"/>
      <point x="172" y="634"/>
      <point x="225" y="588"/>
    </contour>
  </outline>
</glyph>
<glyph name="dotaccent" format="2">
  <advance width="600"/>
  <unicode hex="02D9"/>
  <outline>
    <contour>
      <point x="300" y="603" type="curve" smooth="yes"/>
      <point x="322" y="603"/>
      <point x="338" y="620"/>
      <point x="338" y="641" type="curve" smooth="yes"/>
      <point x="338" y="662"/>
      <point x="322" y="679"/>
      <point x="300" y="679" type="curve" smooth="yes"/>
      <point x="278" y="679"/>
      <point x="262" y="662"/>
      <point x="262" y="641" type="curve" smooth="yes"/>
      <point x="262" y="620"/>
      <point x="278" y="603"/>
    </contour>
  </outline>
</glyph>
<glyph name="hungarumlaut" format="2">
  <advance width="600"/>
  <unicode hex="02DD"/>
  <outline>
    <contour>
      <point x="184" y="599" type="line"/>
      <point x="229" y="599" type="line"/>
      <point x="353" y="706" type="line"/>
      <point x="290" y="706" type="line"/>
    </contour>
    <contour>
      <point x="331" y="599" type="line"/>
      <point x="376" y="599" type="line"/>
      <point x="500" y="706" type="line"/>
      <point x="436" y="706" type="line"/>
    </contour>
  </outline>
</glyph>
<glyph name="endash" format="2">
  <advance width="542"/>
  <unicode hex="2013"/>
  <outline>
    <contour>
      <point x="53" y="258" type="line"/>
      <point x="489" y="258" type="line"/>
      <point x="489" y="302" type="line"/>
      <point x="53" y="302" type="line"/>
    </contour>
  </outline>
</glyph>
<glyph name="uni2015" format="2">
  <advance width="942"/>
  <unicode hex="2015"/>
  <outline>
    <contour>
      <point x="53" y="258" type="line"/>
      <point x="889" y="258" type="line"/>
      <point x="889" y="302" type="line"/>
      <point x="53" y="302" type="line"/>
    </contour>
  </outline>
</glyph>
<glyph name="daggerdbl" format="2">
  <advance width="413"/>
  <unicode hex="2021"/>
  <outline>
    <contour>
      <point x="184" y="0" type="line"/>
      <point x="229" y="0" type="line"/>
      <point x="229" y="206" type="line"/>
      <point x="357" y="206" type="line"/>
      <point x="357" y="246" type="line"/>
      <point x="229" y="246" type="line"/>
      <point x="229" y="455" type="line"/>
      <point x="357" y="455" type="line"/>
      <point x="357" y="495" type="line"/>
      <point x="229" y="495" type="line"/>
      <point x="229" y="700" type="line"/>
      <point x="184" y="700" type="line"/>
      <point x="184" y="495" type="line"/>
      <point x="56" y="495" type="line"/>
      <point x="56" y="455" type="line"/>
      <point x="184" y="455" type="line"/>
      <point x="184" y="246" type="line"/>
      <point x="56" y="246" type="line"/>
      <point x="56" y="206" type="line"/>
      <point x="184" y="206" type="line"/>
    </contour>
  </outline>
</glyph>
<glyph name="bullet" format="2">
  <advance width="316"/>
  <unicode hex="2022"/>
  <outline>
    <contour>
      <point x="158" y="267" type="curve" smooth="yes"/>
      <point x="209" y="267"/>
      <point x="251" y="310"/>
      <point x="251" y="362" type="curve" smooth="yes"/>
      <point x="251" y="414"/>
      <point x="209" y="457"/>
      <point x="158" y="457" type="curve" smooth="yes"/>
      <point x="107" y="457"/>
      <point x="65" y="414"/>
      <point x="65" y="362" type="curve" smooth="yes"/>
      <point x="65" y="310"/>
      <point x="107" y="267"/>
    </contour>
  </outline>
</glyph>
<glyph name="guilsinglleft" format="2">
  <advance width="370"/>
  <unicode hex="2039"/>
  <outline>
    <contour>
      <point x="266" y="0" type="line"/>
      <point x="318" y="0" type="line"/>
      <point x="87" y="246" type="line"/>
      <point x="318" y="492" type="line"/>
      <point x="266" y="492" type="line"/>
      <point x="36" y="246" type="line"/>
    </contour>
  </outline>
</glyph>
<glyph name="fraction" format="2">
  <advance width="578"/>
  <unicode hex="2044"/>
  <outline>
    <contour>
      <point x="35" y="0" type="line"/>
      <point x="78" y="0" type="line"/>
      <point x="471" y="700" type="line"/>
      <point x="428" y="700" type="line"/>
    </contour>
  </outline>
</glyph>
<glyph name="uni2075" format="2">
  <advance width="302"/>
  <unicode hex="2075"/>
  <outline>
    <contour>
      <point x="145" y="345" type="curve" smooth="yes"/>
      <point x="225" y="345"/>
      <point x="275" y="394"/>
      <point x="275" y="459" type="curve" smooth="yes"/>
      <point x="275" y="519"/>
      <point x="228" y="567"/>
      <point x="147" y="567" type="curve" smooth="yes"/>
      <point x="121" y="567"/>
      <point x="97" y="562"/>
      <point x="75" y="554" type="curve"/>
      <point x="80" y="667" type="line"/>
      <point x="256" y="667" type="line"/>
      <point x="256" y="700" type="line"/>
      <point x="48" y="700" type="line"/>
      <point x="40" y="527" type="line"/>
      <point x="62" y="520" type="line"/>
      <point x="89" y="531"/>
      <point x="115" y="536"/>
      <point x="141" y="536" type="curve" smooth="yes"/>
      <point x="203" y="536"/>
      <point x="239" y="499"/>
      <point x="239" y="458" type="curve" smooth="yes"/>
      <point x="239" y="413"/>
      <point x="203" y="378"/>
      <point x="145" y="378" type="curve" smooth="yes"/>
      <point x="106" y="378"/>
      <point x="76" y="389"/>
      <point x="43" y="419" type="curve"/>
      <point x="20" y="392" type="line"/>
      <point x="55" y="360"/>
      <point x="97" y="345"/>
    </contour>
  </outline>
</glyph>
<glyph name="uni2076" format="2">
  <advance width="321"/>
  <unicode hex="2076"/>
  <outline>
    <contour>
      <point x="172" y="345" type="curve" smooth="yes"/>
      <point x="243" y="345"/>
      <point x="294" y="394"/>
      <point x="294" y="460" type="curve" smooth="yes"/>
      <point x="294" y="521"/>
      <point x="245" y="569"/>
      <point x="173" y="569" type="curve" smooth="yes"/>
      <point x="134" y="569"/>
      <point x="93" y="551"/>
      <point x="66" y="518" type="curve"/>
      <point x="66" y="612"/>
      <point x="113" y="672"/>
      <point x="192" y="672" type="curve" smooth="yes"/>
      <point x="216" y="672"/>
      <point x="241" y="664"/>
      <point x="258" y="653" type="curve"/>
      <point x="277" y="682" type="line"/>
      <point x="255" y="696"/>
      <point x="224" y="705"/>
      <point x="196" y="705" type="curve" smooth="yes"/>
      <point x="98" y="705"/>
      <point x="30" y="632"/>
      <point x="30" y="513" type="curve" smooth="yes"/>
      <point x="30" y="412"/>
      <point x="90" y="345"/>
    </contour>
    <contour>
      <point x="166" y="538" type="curve" smooth="yes"/>
      <point x="223" y="538"/>
      <point x="258" y="504"/>
      <point x="258" y="459" type="curve" smooth="yes"/>
      <point x="258" y="412"/>
      <point x="222" y="378"/>
      <point x="171" y="378" type="curve" smooth="yes"/>
      <point x="117" y="378"/>
      <point x="76" y="419"/>
      <point x="68" y="486" type="curve"/>
      <point x="94" y="520"/>
      <point x="131" y="538"/>
    </contour>
  </outline>
</glyph>
<glyph name="uni2078" format="2">
  <advance width="323"/>
  <unicode hex="2078"/>
  <outline>
    <contour>
      <point x="161" y="345" type="curve" smooth="yes"/>
      <point x="235" y="345"/>
      <point x="292" y="386"/>
      <point x="292" y="445" type="curve" smooth="yes"/>
      <point x="292" y="486"/>
      <point x="261" y="520"/>
      <point x="217" y="534" type="curve"/>
      <point x="253" y="548"/>
      <point x="278" y="578"/>
      <point x="278" y="615" type="curve" smooth="yes"/>
      <point x="278" y="666"/>
      <point x="227" y="705"/>
      <point x="161" y="705" type="curve" smooth="yes"/>
      <point x="95" y="705"/>
      <point x="44" y="666"/>
      <point x="44" y="615" type="curve" smooth="yes"/>
      <point x="44" y="578"/>
      <point x="69" y="548"/>
      <point x="105" y="534" type="curve"/>
      <point x="61" y="520"/>
      <point x="30" y="486"/>
      <point x="30" y="445" type="curve" smooth="yes"/>
      <point x="30" y="386"/>
      <point x="87" y="345"/>
    </contour>
    <contour>
      <point x="161" y="550" type="curve" smooth="yes"/>
      <point x="116" y="550"/>
      <point x="80" y="577"/>
      <point x="80" y="612" type="curve" smooth="yes"/>
      <point x="80" y="647"/>
      <point x="115" y="674"/>
      <point x="161" y="674" type="curve" smooth="yes"/>
      <point x="207" y="674"/>
      <point x="242" y="647"/>
      <point x="242" y="612" type="curve" smooth="yes"/>
      <point x="242" y="577"/>
      <point x="206" y="550"/>
    </contour>
    <contour>
      <point x="161" y="377" type="curve" smooth="yes"/>
      <point x="107" y="377"/>
      <point x="66" y="408"/>
      <point x="66" y="448" type="curve" smooth="yes"/>
      <point x="66" y="488"/>
      <point x="107" y="519"/>
      <point x="161" y="519" type="curve" smooth="yes"/>
      <point x="215" y="519"/>
      <point x="256" y="488"/>
      <point x="256" y="448" type="curve" smooth="yes"/>
      <point x="256" y="408"/>
      <point x="215" y="377"/>
    </contour>
  </outline>
</glyph>
<glyph name="uni2079" format="2">
  <advance width="321"/>
  <unicode hex="2079"/>
  <outline>
    <contour>
      <point x="149" y="705" type="curve" smooth="yes"/>
      <point x="78" y="705"/>
      <point x="27" y="656"/>
      <point x="27" y="590" type="curve" smooth="yes"/>
      <point x="27" y="529"/>
      <point x="76" y="481"/>
      <point x="148" y="481" type="curve" smooth="yes"/>
      <point x="187" y="481"/>
      <point x="228" y="499"/>
      <point x="255" y="532" type="curve"/>
      <point x="255" y="438"/>
      <point x="208" y="378"/>
      <point x="129" y="378" type="curve" smooth="yes"/>
      <point x="105" y="378"/>
      <point x="80" y="386"/>
      <point x="63" y="397" type="curve"/>
      <point x="44" y="368" type="line"/>
      <point x="66" y="354"/>
      <point x="97" y="345"/>
      <point x="125" y="345" type="curve" smooth="yes"/>
      <point x="223" y="345"/>
      <point x="291" y="418"/>
      <point x="291" y="537" type="curve" smooth="yes"/>
      <point x="291" y="638"/>
      <point x="231" y="705"/>
    </contour>
    <contour>
      <point x="155" y="512" type="curve" smooth="yes"/>
      <point x="98" y="512"/>
      <point x="63" y="546"/>
      <point x="63" y="591" type="curve" smooth="yes"/>
      <point x="63" y="638"/>
      <point x="99" y="672"/>
      <point x="150" y="672" type="curve" smooth="yes"/>
      <point x="204" y="672"/>
      <point x="245" y="631"/>
      <point x="253" y="564" type="curve"/>
      <point x="227" y="530"/>
      <point x="190" y="512"/>
    </contour>
  </outline>
</glyph>
<glyph name="uni2080" format="2">
  <advance width="345"/>
  <unicode hex="2080"/>
  <outline>
    <contour>
      <point x="173" y="-5" type="curve" smooth="yes"/>
      <point x="255" y="-5"/>
      <point x="316" y="67"/>
      <point x="316" y="175" type="curve" smooth="yes"/>
      <point x="316" y="283"/>
      <point x="255" y="355"/>
      <point x="173" y="355" type="curve" smooth="yes"/>
      <point x="90" y="355"/>
      <point x="30" y="283"/>
      <point x="30" y="175" type="curve" smooth="yes"/>
      <point x="30" y="67"/>
      <point x="90" y="-5"/>
    </contour>
    <contour>
      <point x="173" y="29" type="curve" smooth="yes"/>
      <point x="110" y="29"/>
      <point x="67" y="85"/>
      <point x="67" y="175" type="curve" smooth="yes"/>
      <point x="67" y="265"/>
      <point x="110" y="321"/>
      <point x="173" y="321" type="curve" smooth="yes"/>
      <point x="236" y="321"/>
      <point x="279" y="265"/>
      <point x="279" y="175" type="curve" smooth="yes"/>
      <point x="279" y="85"/>
      <point x="236" y="29"/>
    </contour>
  </outline>
</glyph>
<glyph name="uni2081" format="2">
  <advance width="151"/>
  <unicode hex="2081"/>
  <outline>
    <contour>
      <point x="82" y="0" type="line"/>
      <point x="118" y="0" type="line"/>
      <point x="118" y="350" type="line"/>
      <point x="94" y="350" type="line"/>
      <point x="21" y="319" type="line"/>
      <point x="21" y="282" type="line"/>
      <point x="82" y="308" type="line"/>
    </contour>
  </outline>
</glyph>
<glyph name="uni2082" format="2">
  <advance width="284"/>
  <unicode hex="2082"/>
  <outline>
    <contour>
      <point x="26" y="0" type="line"/>
      <point x="262" y="0" type="line"/>
      <point x="262" y="33" type="line"/>
      <point x="80" y="33" type="line"/>
      <point x="183" y="133" type="line" smooth="yes"/>
      <point x="234" y="182"/>
      <point x="255" y="210"/>
      <point x="255" y="255" type="curve" smooth="yes"/>
      <point x="255" y="312"/>
      <point x="208" y="355"/>
      <point x="140" y="355" type="curve" smooth="yes"/>
      <point x="96" y="355"/>
      <point x="57" y="337"/>
      <point x="20" y="305" type="curve"/>
      <point x="42" y="279" type="line"/>
      <point x="79" y="311"/>
      <point x="106" y="322"/>
      <point x="139" y="322" type="curve" smooth="yes"/>
      <point x="185" y="322"/>
      <point x="219" y="293"/>
      <point x="219" y="253" type="curve" smooth="yes"/>
      <point x="219" y="220"/>
      <point x="201" y="198"/>
      <point x="157" y="155" type="curve" smooth="yes"/>
      <point x="26" y="28" type="line"/>
    </contour>
  </outline>
</glyph>
<glyph name="uni2083" format="2">
  <advance width="306"/>
  <unicode hex="2083"/>
  <outline>
    <contour>
      <point x="148" y="-5" type="curve" smooth="yes"/>
      <point x="222" y="-5"/>
      <point x="275" y="37"/>
      <point x="275" y="95" type="curve" smooth="yes"/>
      <point x="275" y="134"/>
      <point x="247" y="167"/>
      <point x="201" y="180" type="curve"/>
      <point x="241" y="196"/>
      <point x="261" y="228"/>
      <point x="261" y="261" type="curve" smooth="yes"/>
      <point x="261" y="315"/>
      <point x="212" y="355"/>
      <point x="146" y="355" type="curve" smooth="yes"/>
      <point x="101" y="355"/>
      <point x="59" y="339"/>
      <point x="23" y="304" type="curve"/>
      <point x="48" y="279" type="line"/>
      <point x="81" y="311"/>
      <point x="109" y="322"/>
      <point x="146" y="322" type="curve" smooth="yes"/>
      <point x="191" y="322"/>
      <point x="225" y="295"/>
      <point x="225" y="260" type="curve" smooth="yes"/>
      <point x="225" y="224"/>
      <point x="196" y="192"/>
      <point x="147" y="192" type="curve" smooth="yes"/>
      <point x="119" y="192" type="line"/>
      <point x="119" y="161" type="line"/>
      <point x="149" y="161" type="line" smooth="yes"/>
      <point x="205" y="161"/>
      <point x="239" y="133"/>
      <point x="239" y="97" type="curve" smooth="yes"/>
      <point x="239" y="57"/>
      <point x="202" y="28"/>
      <point x="148" y="28" type="curve" smooth="yes"/>
      <point x="108" y="28"/>
      <point x="76" y="38"/>
      <point x="44" y="69" type="curve"/>
      <point x="19" y="44" type="line"/>
      <point x="54" y="11"/>
      <point x="99" y="-5"/>
    </contour>
  </outline>
</glyph>
<glyph name="uni2085" format="2">
  <advance width="302"/>
  <unicode hex="2085"/>
  <outline>
    <contour>
      <point x="145" y="-5" type="curve" smooth="yes"/>
      <point x="225" y="-5"/>
      <point x="275" y="44"/>
      <point x="275" y="109" type="curve" smooth="yes"/>
      <point x="275" y="169"/>
      <point x="228" y="217"/>
      <point x="147" y="217" type="curve" smooth="yes"/>
      <point x="121" y="217"/>
      <point x="97" y="212"/>
      <point x="75" y="204" type="curve"/>
      <point x="80" y="317" type="line"/>
      <point x="256" y="317" type="line"/>
      <point x="256" y="350" type="line"/>
      <point x="48" y="350" type="line"/>
      <point x="40" y="177" type="line"/>
      <point x="62" y="170" type="line"/>
      <point x="89" y="181"/>
      <point x="115" y="186"/>
      <point x="141" y="186" type="curve" smooth="yes"/>
      <point x="203" y="186"/>
      <point x="239" y="149"/>
      <point x="239" y="108" type="curve" smooth="yes"/>
      <point x="239" y="63"/>
      <point x="203" y="28"/>
      <point x="145" y="28" type="curve" smooth="yes"/>
      <point x="106" y="28"/>
      <point x="76" y="39"/>
      <point x="43" y="69" type="curve"/>
      <point x="20" y="42" type="line"/>
      <point x="55" y="10"/>
      <point x="97" y="-5"/>
    </contour>
  </outline>
</glyph>
<glyph name="uni2086" format="2">
  <advance width="321"/>
  <unicode hex="2086"/>
  <outline>
    <contour>
      <point x="172" y="-5" type="curve" smooth="yes"/>
      <point x="243" y="-5"/>
      <point x="294" y="44"/>
      <point x="294" y="110" type="curve" smooth="yes"/>
      <point x="294" y="171"/>
      <point x="245" y="219"/>
      <point x="173" y="219" type="curve" smooth="yes"/>
      <point x="134" y="219"/>
      <point x="93" y="201"/>
      <point x="66" y="168" type="curve"/>
      <point x="66" y="262"/>
      <point x="113" y="322"/>
      <point x="192" y="322" type="curve" smooth="yes"/>
      <point x="216" y="322"/>
      <point x="241" y="314"/>
      <point x="258" y="303" type="curve"/>
      <point x="277" y="332" type="line"/>
      <point x="255" y="346"/>
      <point x="224" y="355"/>
      <point x="196" y="355" type="curve" smooth="yes"/>
      <point x="98" y="355"/>
      <point x="30" y="282"/>
      <point x="30" y="163" type="curve" smooth="yes"/>
      <point x="30" y="62"/>
      <point x="90" y="-5"/>
    </contour>
    <contour>
      <point x="166" y="188" type="curve" smooth="yes"/>
      <point x="223" y="188"/>
      <point x="258" y="154"/>
      <point x="258" y="109" type="curve" smooth="yes"/>
      <point x="258" y="62"/>
      <point x="222" y="28"/>
      <point x="171" y="28" type="curve" smooth="yes"/>
      <point x="117" y="28"/>
      <point x="76" y="69"/>
      <point x="68" y="136" type="curve"/>
      <point x="94" y="170"/>
      <point x="131" y="188"/>
    </contour>
  </outline>
</glyph>
<glyph name="uni2087" format="2">
  <advance width="288"/>
  <unicode hex="2087"/>
  <outline>
    <contour>
      <point x="56" y="0" type="line"/>
      <point x="96" y="0" type="line"/>
      <point x="278" y="321" type="line"/>
      <point x="278" y="350" type="line"/>
      <point x="15" y="350" type="line"/>
      <point x="15" y="317" type="line"/>
      <point x="236" y="317" type="line"/>
    </contour>
  </outline>
</glyph>
<glyph name="uni2088" format="2">
  <advance width="323"/>
  <unicode hex="2088"/>
  <outline>
    <contour>
      <point x="161" y="-5" type="curve" smooth="yes"/>
      <point x="235" y="-5"/>
      <point x="292" y="36"/>
      <point x="292" y="95" type="curve" smooth="yes"/>
      <point x="292" y="136"/>
      <point x="261" y="170"/>
      <point x="217" y="184" type="curve"/>
      <point x="253" y="198"/>
      <point x="278" y="228"/>
      <point x="278" y="265" type="curve" smooth="yes"/>
      <point x="278" y="316"/>
      <point x="227" y="355"/>
      <point x="161" y="355" type="curve" smooth="yes"/>
      <point x="95" y="355"/>
      <point x="44" y="316"/>
      <point x="44" y="265" type="curve" smooth="yes"/>
      <point x="44" y="228"/>
      <point x="69" y="198"/>
      <point x="105" y="184" type="curve"/>
      <point x="61" y="170"/>
      <point x="30" y="136"/>
      <point x="30" y="95" type="curve" smooth="yes"/>
      <point x="30" y="36"/>
      <point x="87" y="-5"/>
    </contour>
    <contour>
      <point x="161" y="200" type="curve" smooth="yes"/>
      <point x="116" y="200"/>
      <point x="80" y="227"/>
      <point x="80" y="262" type="curve" smooth="yes"/>
      <point x="80" y="297"/>
      <point x="115" y="324"/>
      <point x="161" y="324" type="curve" smooth="yes"/>
      <point x="207" y="324"/>
      <point x="242" y="297"/>
      <point x="242" y="262" type="curve" smooth="yes"/>
      <point x="242" y="227"/>
      <point x="206" y="200"/>
    </contour>
    <contour>
      <point x="161" y="27" type="curve" smooth="yes"/>
      <point x="107" y="27"/>
      <point x="66" y="58"/>
      <point x="66" y="98" type="curve" smooth="yes"/>
      <point x="66" y="138"/>
      <point x="107" y="169"/>
      <point x="161" y="169" type="curve" smooth="yes"/>
      <point x="215" y="169"/>
      <point x="256" y="138"/>
      <point x="256" y="98" type="curve" smooth="yes"/>
      <point x="256" y="58"/>
      <point x="215" y="27"/>
    </contour>
  </outline>
</glyph>
<glyph name="Euro" format="2">
  <advance width="769"/>
  <unicode hex="20AC"/>
  <outline>
    <contour>
      <point x="459" y="-11" type="curve" smooth="yes"/>
      <point x="561" y="-11"/>
      <point x="655" y="35"/>
      <point x="715" y="115" type="curve"/>
      <point x="681" y="141" type="line"/>
      <point x="628" y="69"/>
      <point x="546" y="32"/>
      <point x="458" y="32" type="curve" smooth="yes"/>
      <point x="326" y="32"/>
      <point x="218" y="117"/>
      <point x="187" y="262" type="curve"/>
      <point x="422" y="262" type="line"/>
      <point x="435" y="303" type="line"/>
      <point x="180" y="303" type="line"/>
      <point x="179" y="318"/>
      <point x="178" y="334"/>
      <point x="178" y="350" type="curve" smooth="yes"/>
      <point x="178" y="366"/>
      <point x="179" y="382"/>
      <point x="180" y="397" type="curve"/>
      <point x="468" y="397" type="line"/>
      <point x="482" y="438" type="line"/>
      <point x="187" y="438" type="line"/>
      <point x="218" y="583"/>
      <point x="326" y="668"/>
      <point x="458" y="668" type="curve" smooth="yes"/>
      <point x="546" y="668"/>
      <point x="628" y="631"/>
      <point x="681" y="559" type="curve"/>
      <point x="715" y="585" type="line"/>
      <point x="655" y="665"/>
      <point x="561" y="711"/>
      <point x="459" y="711" type="curve" smooth="yes"/>
      <point x="300" y="711"/>
      <point x="173" y="604"/>
      <point x="140" y="438" type="curve"/>
      <point x="32" y="438" type="line"/>
      <point x="32" y="397" type="line"/>
      <point x="134" y="397" type="line"/>
      <point x="133" y="382"/>
      <point x="132" y="366"/>
      <point x="132" y="350" type="curve" smooth="yes"/>
      <point x="132" y="334"/>
      <point x="133" y="318"/>
      <point x="134" y="303" type="curve"/>
      <point x="32" y="303" type="line"/>
      <point x="32" y="262" type="line"/>
      <point x="140" y="262" type="line"/>
      <point x="173" y="96"/>
      <point x="300" y="-11"/>
    </contour>
  </outline>
</glyph>
<glyph name="uni2191" format="2">
  <advance width="598"/>
  <unicode hex="2191"/>
  <outline>
    <contour>
      <point x="279" y="0" type="line"/>
      <point x="319" y="0" type="line"/>
      <point x="319" y="660" type="line"/>
      <point x="494" y="424" type="line"/>
      <point x="525" y="444" type="line"/>
      <point x="300" y="750" type="line"/>
      <point x="73" y="444" type="line"/>
      <point x="106" y="421" type="line"/>
      <point x="279" y="652" type="line"/>
    </contour>
  </outline>
</glyph>
<glyph name="minus" format="2">
  <advance width="600"/>
  <unicode hex="2212"/>
  <outline>
    <contour>
      <point x="111" y="337" type="line"/>
      <point x="488" y="337" type="line"/>
      <point x="488" y="378" type="line"/>
      <point x="111" y="378" type="line"/>
    </contour>
  </outline>
</glyph>
<glyph name="notequal" format="2">
  <advance width="600"/>
  <unicode hex="2260"/>
  <outline>
    <contour>
      <point x="102" y="147" type="line"/>
      <point x="151" y="147" type="line"/>
      <point x="246" y="263" type="line"/>
      <point x="488" y="263" type="line"/>
      <point x="488" y="304" type="line"/>
      <point x="280" y="304" type="line"/>
      <point x="369" y="412" type="line"/>
      <point x="488" y="412" type="line"/>
      <point x="488" y="453" type="line"/>
      <point x="403" y="453" type="line"/>
      <point x="498" y="569" type="line"/>
      <point x="449" y="569" type="line"/>
      <point x="354" y="453" type="line"/>
      <point x="111" y="453" type="line"/>
      <point x="111" y="412" type="line"/>
      <point x="320" y="412" type="line"/>
      <point x="231" y="304" type="line"/>
      <point x="111" y="304" type="line"/>
      <point x="111" y="263" type="line"/>
      <point x="197" y="263" type="line"/>
    </contour>
  </outline>
</glyph>
<glyph name="aogonek.school" format="2">
  <advance width="571"/>
  <outline>
    <contour>
      <point x="448" y="-221" type="curve" smooth="yes"/>
      <point x="474" y="-221"/>
      <point x="497" y="-214"/>
      <point x="517" y="-201" type="curve"/>
      <point x="504" y="-172" type="line"/>
      <point x="489" y="-182"/>
      <point x="471" y="-187"/>
      <point x="453" y="-187" type="curve" smooth="yes"/>
      <point x="415" y="-187"/>
      <point x="391" y="-168"/>
      <point x="391" y="-131" type="curve" smooth="yes"/>
      <point x="391" y="-94"/>
      <point x="418" y="-55"/>
      <point x="503" y="0" type="curve"/>
      <point x="503" y="492" type="line"/>
      <point x="459" y="492" type="line"/>
      <point x="459" y="434" type="line"/>
      <point x="413" y="475"/>
      <point x="353" y="502"/>
      <point x="290" y="502" type="curve" smooth="yes"/>
      <point x="153" y="502"/>
      <point x="45" y="389"/>
      <point x="45" y="246" type="curve" smooth="yes"/>
      <point x="45" y="102"/>
      <point x="153" y="-10"/>
      <point x="290" y="-10" type="curve" smooth="yes"/>
      <point x="356" y="-10"/>
      <point x="415" y="14"/>
      <point x="459" y="59" type="curve"/>
      <point x="459" y="0" type="line"/>
      <point x="460" y="0" type="line"/>
      <point x="383" y="-49"/>
      <point x="352" y="-94"/>
      <point x="352" y="-138" type="curve" smooth="yes"/>
      <point x="352" y="-185"/>
      <point x="386" y="-221"/>
    </contour>
    <contour>
      <point x="90" y="246" type="curve" smooth="yes"/>
      <point x="90" y="366"/>
      <point x="178" y="460"/>
      <point x="290" y="460" type="curve" smooth="yes"/>
      <point x="361" y="460"/>
      <point x="424" y="425"/>
      <point x="459" y="378" type="curve"/>
      <point x="459" y="114" type="line"/>
      <point x="426" y="65"/>
      <point x="363" y="32"/>
      <point x="290" y="32" type="curve" smooth="yes"/>
      <point x="178" y="32"/>
      <point x="90" y="126"/>
    </contour>
  </outline>
</glyph>
<glyph name="caronSlovak" format="2">
  <advance width="600"/>
  <outline>
    <contour>
      <point x="252" y="532" type="line"/>
      <point x="285" y="532" type="line"/>
      <point x="302" y="710" type="line"/>
      <point x="254" y="700" type="line"/>
    </contour>
  </outline>
</glyph>
<glyph name="cordinal" format="2">
  <advance width="403"/>
  <outline>
    <contour>
      <point x="226" y="325" type="curve" smooth="yes"/>
      <point x="278" y="325"/>
      <point x="328" y="345"/>
      <point x="367" y="382" type="curve"/>
      <point x="341" y="411" type="line"/>
      <point x="309" y="380"/>
      <point x="269" y="363"/>
      <point x="226" y="363" type="curve" smooth="yes"/>
      <point x="145" y="363"/>
      <point x="80" y="431"/>
      <point x="80" y="518" type="curve" smooth="yes"/>
      <point x="80" y="605"/>
      <point x="145" y="673"/>
      <point x="226" y="673" type="curve" smooth="yes"/>
      <point x="269" y="673"/>
      <point x="309" y="656"/>
      <point x="341" y="625" type="curve"/>
      <point x="367" y="654" type="line"/>
      <point x="328" y="691"/>
      <point x="278" y="711"/>
      <point x="226" y="711" type="curve" smooth="yes"/>
      <point x="122" y="711"/>
      <point x="40" y="626"/>
      <point x="40" y="518" type="curve" smooth="yes"/>
      <point x="40" y="410"/>
      <point x="122" y="325"/>
    </contour>
  </outline>
</glyph>
<glyph name="eight.tab" format="2">
  <advance width="600"/>
  <outline>
    <contour>
      <point x="301" y="-11" type="curve" smooth="yes"/>
      <point x="440" y="-11"/>
      <point x="542" y="72"/>
      <point x="542" y="187" type="curve" smooth="yes"/>
      <point x="542" y="277"/>
      <point x="474" y="351"/>
      <point x="371" y="375" type="curve"/>
      <point x="457" y="398"/>
      <point x="513" y="460"/>
      <point x="513" y="536" type="curve" smooth="yes"/>
      <point x="513" y="635"/>
      <point x="422" y="711"/>
      <point x="300" y="711" type="curve" smooth="yes"/>
      <point x="179" y="711"/>
      <point x="88" y="635"/>
      <point x="88" y="536" type="curve" smooth="yes"/>
      <point x="88" y="460"/>
      <point x="144" y="398"/>
      <point x="232" y="375" type="curve"/>
      <point x="130" y="351"/>
      <point x="58" y="274"/>
      <point x="58" y="187" type="curve" smooth="yes"/>
      <point x="58" y="72"/>
      <point x="162" y="-11"/>
    </contour>
    <contour>
      <point x="300" y="392" type="curve" smooth="yes"/>
      <point x="206" y="392"/>
      <point x="133" y="453"/>
      <point x="133" y="531" type="curve" smooth="yes"/>
      <point x="133" y="608"/>
      <point x="206" y="669"/>
      <point x="300" y="669" type="curve" smooth="yes"/>
      <point x="395" y="669"/>
      <point x="468" y="608"/>
      <point x="468" y="531" type="curve" smooth="yes"/>
      <point x="468" y="453"/>
      <point x="395" y="392"/>
    </contour>
    <contour>
      <point x="300" y="31" type="curve" smooth="yes"/>
      <point x="190" y="31"/>
      <point x="104" y="101"/>
      <point x="104" y="190" type="curve" smooth="yes"/>
      <point x="104" y="280"/>
      <point x="190" y="350"/>
      <point x="300" y="350" type="curve" smooth="yes"/>
      <point x="410" y="350"/>
      <point x="496" y="280"/>
      <point x="496" y="190" type="curve" smooth="yes"/>
      <point x="496" y="101"/>
      <point x="410" y="31"/>
    </contour>
  </outline>
</glyph>
<glyph name="five.tab" format="2">
  <advance width="600"/>
  <outline>
    <contour>
      <point x="290" y="-11" type="curve" smooth="yes"/>
      <point x="429" y="-11"/>
      <point x="522" y="82"/>
      <point x="522" y="220" type="curve" smooth="yes"/>
      <point x="522" y="346"/>
      <point x="431" y="432"/>
      <point x="295" y="432" type="curve" smooth="yes"/>
      <point x="239" y="432"/>
      <point x="194" y="421"/>
      <point x="137" y="394" type="curve"/>
      <point x="149" y="658" type="line"/>
      <point x="485" y="658" type="line"/>
      <point x="485" y="700" type="line"/>
      <point x="107" y="700" type="line"/>
      <point x="91" y="359" type="line"/>
      <point x="122" y="348" type="line"/>
      <point x="182" y="378"/>
      <point x="235" y="390"/>
      <point x="291" y="390" type="curve" smooth="yes"/>
      <point x="402" y="390"/>
      <point x="476" y="321"/>
      <point x="476" y="218" type="curve" smooth="yes"/>
      <point x="476" y="107"/>
      <point x="399" y="31"/>
      <point x="290" y="31" type="curve" smooth="yes"/>
      <point x="209" y="31"/>
      <point x="150" y="54"/>
      <point x="89" y="115" type="curve"/>
      <point x="59" y="86" type="line"/>
      <point x="124" y="22"/>
      <point x="201" y="-11"/>
    </contour>
  </outline>
</glyph>
<glyph name="one.tab" format="2">
  <advance width="600"/>
  <guideline x="93" y="259" angle="270.0" identifier="zWHZDg1UEt"/>
  <outline>
    <contour>
      <point x="94" y="0" type="line"/>
      <point x="529" y="0" type="line"/>
      <point x="529" y="42" type="line"/>
      <point x="329" y="42" type="line"/>
      <point x="329" y="700" type="line"/>
      <point x="303" y="700" type="line"/>
      <point x="94" y="612" type="line"/>
      <point x="94" y="566" type="line"/>
      <point x="285" y="646" type="line"/>
      <point x="285" y="42" type="line"/>
      <point x="94" y="42" type="line"/>
    </contour>
  </outline>
</glyph>
<glyph name="reversequotedblleft" format="2">
  <advance width="333"/>
  <outline>
    <contour>
      <point x="138" y="522" type="line"/>
      <point x="176" y="522" type="line"/>
      <point x="123" y="709" type="line"/>
      <point x="71" y="709" type="line"/>
    </contour>
    <contour>
      <point x="248" y="522" type="line"/>
      <point x="286" y="522" type="line"/>
      <point x="233" y="709" type="line"/>
      <point x="181" y="709" type="line"/>
    </contour>
  </outline>
</glyph>
<glyph name="seven.tab" format="2">
  <advance width="600"/>
  <outline>
    <contour>
      <point x="128" y="0" type="line"/>
      <point x="177" y="0" type="line"/>
      <point x="542" y="665" type="line"/>
      <point x="542" y="700" type="line"/>
      <point x="57" y="700" type="line"/>
      <point x="57" y="658" type="line"/>
      <point x="489" y="658" type="line"/>
    </contour>
  </outline>
</glyph>
<glyph name="three.tab" format="2">
  <advance width="600"/>
  <outline>
    <contour>
      <point x="285" y="-11" type="curve" smooth="yes"/>
      <point x="419" y="-11"/>
      <point x="519" y="74"/>
      <point x="519" y="190" type="curve" smooth="yes"/>
      <point x="519" y="270"/>
      <point x="459" y="340"/>
      <point x="370" y="364" type="curve"/>
      <point x="444" y="392"/>
      <point x="490" y="452"/>
      <point x="490" y="523" type="curve" smooth="yes"/>
      <point x="490" y="629"/>
      <point x="399" y="711"/>
      <point x="278" y="711" type="curve" smooth="yes"/>
      <point x="194" y="711"/>
      <point x="122" y="679"/>
      <point x="60" y="616" type="curve"/>
      <point x="88" y="584" type="line"/>
      <point x="148" y="645"/>
      <point x="205" y="669"/>
      <point x="279" y="669" type="curve" smooth="yes"/>
      <point x="373" y="669"/>
      <point x="444" y="603"/>
      <point x="444" y="524" type="curve" smooth="yes"/>
      <point x="444" y="440"/>
      <point x="387" y="382"/>
      <point x="305" y="382" type="curve" smooth="yes"/>
      <point x="223" y="382" type="line"/>
      <point x="223" y="341" type="line"/>
      <point x="303" y="341" type="line" smooth="yes"/>
      <point x="402" y="341"/>
      <point x="473" y="275"/>
      <point x="473" y="189" type="curve" smooth="yes"/>
      <point x="473" y="97"/>
      <point x="393" y="31"/>
      <point x="284" y="31" type="curve" smooth="yes"/>
      <point x="205" y="31"/>
      <point x="139" y="57"/>
      <point x="79" y="115" type="curve"/>
      <point x="50" y="84" type="line"/>
      <point x="115" y="22"/>
      <point x="194" y="-11"/>
    </contour>
  </outline>
</glyph>
<glyph name="two.tab" format="2">
  <advance width="600"/>
  <outline>
    <contour>
      <point x="83" y="0" type="line"/>
      <point x="516" y="0" type="line"/>
      <point x="516" y="42" type="line"/>
      <point x="146" y="42" type="line"/>
      <point x="387" y="320" type="line" smooth="yes"/>
      <point x="480" y="427"/>
      <point x="500" y="463"/>
      <point x="500" y="534" type="curve" smooth="yes"/>
      <point x="500" y="635"/>
      <point x="412" y="711"/>
      <point x="293" y="711" type="curve" smooth="yes"/>
      <point x="216" y="711"/>
      <point x="148" y="679"/>
      <point x="77" y="615" type="curve"/>
      <point x="105" y="582" type="line"/>
      <point x="176" y="646"/>
      <point x="226" y="669"/>
      <point x="293" y="669" type="curve" smooth="yes"/>
      <point x="388" y="669"/>
      <point x="454" y="611"/>
      <point x="454" y="532" type="curve" smooth="yes"/>
      <point x="454" y="475"/>
      <point x="431" y="435"/>
      <point x="352" y="344" type="curve" smooth="yes"/>
      <point x="83" y="35" type="line"/>
    </contour>
  </outline>
</glyph>
<glyph name="uni0326" format="2">
  <guideline x="300" y="-31" angle="90.0" identifier="TB9epO5wox"/>
  <anchor x="300" y="0" name="_bottom"/>
  <outline>
    <contour>
      <point x="239" y="-254" type="line"/>
      <point x="274" y="-254" type="line"/>
      <point x="325" y="-86" type="line"/>
      <point x="275" y="-86" type="line"/>
    </contour>
  </outline>
</glyph>
<glyph name="zero.tab" format="2">
  <advance width="600"/>
  <outline>
    <contour>
      <point x="300" y="-11" type="curve" smooth="yes"/>
      <point x="451" y="-11"/>
      <point x="550" y="133"/>
      <point x="550" y="350" type="curve" smooth="yes"/>
      <point x="550" y="567"/>
      <point x="451" y="711"/>
      <point x="300" y="711" type="curve" smooth="yes"/>
      <point x="149" y="711"/>
      <point x="50" y="567"/>
      <point x="50" y="350" type="curve" smooth="yes"/>
      <point x="50" y="133"/>
      <point x="149" y="-11"/>
    </contour>
    <contour>
      <point x="156" y="112" type="line"/>
      <point x="118" y="168"/>
      <point x="96" y="250"/>
      <point x="96" y="350" type="curve" smooth="yes"/>
      <point x="96" y="544"/>
      <point x="177" y="669"/>
      <point x="300" y="669" type="curve" smooth="yes"/>
      <point x="345" y="669"/>
      <point x="384" y="652"/>
      <point x="416" y="622" type="curve"/>
    </contour>
    <contour>
      <point x="300" y="31" type="curve" smooth="yes"/>
      <point x="255" y="31"/>
      <point x="215" y="48"/>
      <point x="184" y="79" type="curve"/>
      <point x="444" y="588" type="line"/>
      <point x="482" y="532"/>
      <point x="504" y="451"/>
      <point x="504" y="350" type="curve" smooth="yes"/>
      <point x="504" y="156"/>
      <point x="423" y="31"/>
    </contour>
  </outline>
</glyph>
